<svg xmlns="http://www.w3.org/2000/svg" xmlns:xlink="http://www.w3.org/1999/xlink" viewBox="0 0 620 438"><style><![CDATA[.R{fill:#263238}.S{fill:#e0e0e0}.T{fill:#e8505b}.U{fill:#455a64}.V{fill:#fff}.W{fill:#aa6550}.X{opacity:.6}.Y{fill:#652e83}.Z{fill:#ffbe9d}.a{fill:#eb996e}.b{fill:#b78876}.c{fill:#fafafa}.d{fill:#995037}]]></style><path d="M218.836 399.67v21.6h66.5v-21.6h-66.5z" fill="#f5f5f5"/><g class="S"><path d="M216.045 393.624v6h71.6v-6h-71.6z"/><path d="M251.862 421.324h33.5v-21.7h2.3v-6h-37.2v5.5l1.4 22.2zm-23.725-18.166h13.5v3.3h-13.5z"/></g><path d="M226.402 410.483h17.3v6.9h-17.3z" class="V"/><path d="M224.946 372.017v21.6h66.5v-21.6h-66.5z" fill="#f5f5f5"/><g class="S"><path d="M222.155 365.97v6h71.6v-6h-71.6z"/><path d="M257.972 393.67h33.5v-21.7h2.3v-6h-37.2v5.5l1.4 22.2zm-23.724-18.165h13.5v3.3h-13.5z"/></g><path d="M232.512 382.83h17.3v6.9h-17.3z" class="V"/><g class="S"><path d="M288.42 198.1l-.9-3.3 1.8.1.2 3-1.1.2z"/><path d="M285.648 197.992l-2.1 11.6-5.4 15.4 30.6-4.4-12.4-13.4-5.2-10-5.5.8m-60.088 81.712v-.5c0-5.4 4.3-9.7 9.7-9.7s9.7 4.3 9.7 9.7v.5h-19.4z"/><path d="M235.22 269.914c-.2 0-.3-.1-.4-.3l-12.9-49c-.1-.2.1-.4.3-.5s.5.1.5.3l12.9 49c0 .2-.1.4-.4.5zm-3.396 1.212c-.2 0-.3-.1-.4-.3l-12.9-49c-.1-.2.1-.4.3-.5s.4.1.5.3l12.9 49c0 .2-.1.4-.4.5.1-.1.1-.1 0 0z"/><path d="M218.04 220.958c0 1.3 1.1 2.4 2.4 2.4s2.4-1.1 2.4-2.4-1.1-2.4-2.4-2.4c-1.4 0-2.4 1.1-2.4 2.4z"/><path d="M220.646 221.333l-.4-.6 45.5-31.5 26.7 15.1-.4.7-26.2-14.9-45.2 31.2zm1.99 1.077l44.892-31.078.455.658-44.892 31.078z"/><path d="M264.376 190.917a2.22 2.22 0 0 0 2.2 2.2 2.22 2.22 0 0 0 2.2-2.2 2.22 2.22 0 0 0-2.2-2.2c-1.3 0-2.2 1-2.2 2.2zm24.422-114.97l-39 13.1h88.2l-36.7-13.1h-12.5z"/><path d="M299.78 88.166l-.3 2.3c-.1 2.1.4 4.2 1.5 6.1.6 1.2 1.4 2.4 2 3.9.7 1.6.9 3.4.5 5.1-.4 1.9-1.3 3.6-2.7 4.9-1.5 1.4-3.6 2.2-5.6 2.1-2.1 0-4.1-.7-5.7-2-2.8-2.4-3.9-6.4-2.5-9.9.6-1.4 1.4-2.6 2.3-3.8.8-.9 1.4-2 1.9-3 .4-.8.6-1.7.6-2.6 0-.8-.2-1.5-.5-2.2.1.2.2.3.3.5.2.5.4 1.1.4 1.7 0 .9-.2 1.9-.6 2.7-.5 1.1-1.1 2.2-1.9 3.1-.9 1.1-1.7 2.4-2.2 3.7-1.7 4.2.4 9 4.6 10.7 1 .4 2.1.6 3.3.6 2 0 3.9-.7 5.3-2 1.3-1.2 2.3-2.9 2.6-4.7.3-1.6.2-3.3-.5-4.8-.6-1.5-1.4-2.7-1.9-3.9-1-1.9-1.5-4.1-1.3-6.2 0-.6.1-1.2.3-1.7-.1-.2 0-.4.1-.6zm-3.293.83c0 .6-.1 1.1-.2 1.6l-.4 4.5c-.1 2.2 0 4.4.3 6.6 0 .3.2.5.4.7s.4.3.7.2c.5-.1.7-.8.6-1.4-.2-1.3-1.4-2.3-2.7-2.4-1.4 0-2.5 1-2.8 2.3-.1.6.2 1.2.7 1.4.6.1 1.1-.2 1.3-.7.2-.6.3-1.1.3-1.7s.1-1.2.1-1.7l-.1-3.1c-.1-1.5-.4-3-.8-4.4l-.4-1.6c.1.1.1.3.2.4l.4 1.2c.4 1.5.7 2.9.9 4.4l.2 3.1c0 .6 0 1.1-.1 1.7a6.28 6.28 0 0 1-.3 1.9c-.1.3-.4.6-.7.8-.4.3-.8.4-1.2.3-.8-.3-1.2-1.1-1-1.9.3-1.8 2-3 3.7-2.7a3.18 3.18 0 0 1 2.7 2.7c.1.4 0 .8-.1 1.1-.1.4-.5.7-.9.8s-.8-.1-1.1-.4c-.2-.3-.4-.6-.5-1-.5-3.7-.3-7.5.4-11.2.1-.5.2-.9.3-1.2 0 0 .1-.2.1-.3zM295.072 8.9c0 .2.1.4 0 .7v1.9l.1 7.1.1 23.4-.1 23.4-.1 7.1v2.6c0-.2-.1-.4 0-.7v-1.9l-.1-7.1-.1-23.4.1-23.4.1-7.1V9.6c-.1-.3 0-.5 0-.7z"/><path d="M288.836 75.91l2.4-10.8h8l2.1 10.8h-12.5z"/></g><path d="M419.557 168.472l4.3-6.5c1.6-2.1 2.2-3.1 1.8-3.4-.6-.4-.3-.3-3.9 3.2 0 0 5-4.9 3.1-4.7-.9.1-5.1 4.1-5.1 4.1 3.7-3 4.6-4.7 4.1-5.2-.7-.8-5.8 4.2-5.8 4.2 1.6-1.4 3-3 4.4-4.6.5-.9-.7-.7-1.6-.2-1 .5-6.7 4.3-8.3 5.4-.5.4-1.2.3-1.6-.2 0 0-.1-.1-.1-.2-1-2.7-3.2-4.2-4-4.3-.5 0-.9.3-.9.8 0 .3.1.6.3.7.6.7 1.1 1.6 1.5 2.5.3.7.6 1.4.6 2.2l.2 2.3-2.5 14.2 9 6.3 4.5-16.6z" class="b"/><path d="M419.67 163.886c1.8-1.4 3.4-3 4.7-4.8-1.8 1.4-3.4 3-4.7 4.8zm-1.464-1.233c2-1.4 3.8-3 5.3-4.8-2 1.4-3.8 3-5.3 4.8zm-1.512-1.248c1.9-1.3 3.6-2.8 5.1-4.5-1.9 1.3-3.6 2.8-5.1 4.5z" class="W"/><path d="M358.025 124.732c7.3-.5 13.6 4.9 14.2 12.1v.2c.4 6.1.7 12.7.7 16.1-.1 7.2-7.2 8.3-7.2 8.3s1 12.4.9 14.4l-18.9.9-1.7-38.3c-.4-7 4.9-13.1 12-13.7z" class="b"/><path d="M365.663 161.316c-3.3.1-6.6-.9-9.3-2.7 0 0 2.2 5.2 9.4 4.5l-.1-1.8z" class="W"/><path d="M346.53 140.946c-.1-.1-4.9-1.5-4.8 3.4s5 3.7 5 3.6l-.2-7z" class="b"/><path d="M345.278 146.15s-.1.1-.2.1c-.2.1-.4.1-.6 0-.7-.4-1.1-1.1-1-1.9 0-.4 0-.8.2-1.2.1-.3.3-.6.6-.7.2-.1.4 0 .5.2.1.1 0 .2.1.2s.1-.1.1-.3c0-.1-.1-.2-.2-.3s-.3-.1-.5-.1c-.5.3-.8.6-1 1s-.3.9-.3 1.4a2.33 2.33 0 0 0 1.3 2.1c.3.1.6 0 .8-.2s.2-.3.2-.3z" class="W"/><path d="M370.417 141.646a.94.94 0 0 1-1 1c-.5 0-1-.4-1.1-.9a.94.94 0 0 1 1-1c.6-.1 1.1.3 1.1.9zm-.03-1.953c-.1.1-.9-.4-2-.4s-1.9.6-2 .4c-.1-.1.1-.3.4-.6.5-.3 1-.5 1.6-.5s1.1.2 1.6.5c.3.3.5.5.4.6zm-10.788 1.954a.94.94 0 0 1-1 1c-.5 0-1-.4-1.1-.9a.94.94 0 0 1 1-1c.6-.1 1.1.3 1.1.9zm-.03-1.747c-.1.1-.9-.4-2-.4s-1.9.6-2 .4c-.1-.1.1-.3.4-.6.5-.3 1-.5 1.6-.5s1.1.2 1.6.5c.3.3.5.5.4.6zm4.02 8.165c.6-.2 1.2-.3 1.8-.3.3 0 .5-.1.6-.3 0-.3 0-.6-.2-.8l-.8-2.1c-.8-1.8-1.4-3.7-1.9-5.6.9 1.7 1.7 3.6 2.3 5.4l.8 2.2c.2.3.2.7.1 1.1-.1.2-.3.4-.5.4s-.3.1-.5.1c-.5-.1-1.1-.1-1.7-.1zm-3.3.73c.2 0 .2 1.2 1.2 2s2.3.7 2.3.9c0 .1-.3.2-.8.2-.7 0-1.4-.2-1.9-.7-.5-.4-.9-1-.9-1.7-.1-.4.1-.7.1-.7zm-.425-13.26c-.1.3-1.2.2-2.5.3s-2.3.5-2.5.2c-.1-.1.1-.4.5-.7 1.1-.7 2.5-.9 3.8-.4.5.2.7.5.7.6zm10.103.907c-.2.2-1 0-1.9 0s-1.7.2-1.9-.1c-.1-.1 0-.4.4-.6.9-.6 2.1-.5 3 .1.4.2.5.5.4.6zm-23.923 4.437c-.1.7-.1 1.5 0 2.2.1.8.6 1.4 1.2 1.8 1.2.6 2.8-.3 3.3-1.6.4-1.3.5-2.7.3-4.1-.2-1.9-.2-3.7.1-5.6a8.01 8.01 0 0 1 2.7-4.8 5.34 5.34 0 0 1 5.3-.8c1 .6 1.9 1.3 2.8 2.1.9.6 1.9.9 3 .7 1.1-.1 1.9-.9 2.3-1.9.2-1.1-.2-2.3-1.2-3-.9-.7-2-1.1-3.1-1.3-3.1-.6-6.3-.4-9.3.7s-5.4 3.4-6.7 6.3c-1.4 3.4-.5 6-.7 9.7" class="R"/><g class="S"><path d="M418.868 172.615l-11.7-2.8-7.7 21-21.4-19.2c-2.3-1.7-6.2-1.9-9.2-2.2h-.2c-1.2-.1-1.7-.3-2.4-.4-5.1 3.9-14 4.1-19 .1 0 0-3.8.9-6.1 1.3-7.2 1.4-12.4 6.6-13.8 11.5l9 20.8 1.7 19.8-5 17.7c-.5 1.6.5 3.3 2.1 3.8.1 0 .3.1.4.1l44.7.7.7-.4c1.1-1.7 1.5-3.7 1.2-5.7-1.9-8.5-.6-33.7-1-41.5 8.8 8.5 18.5 15.6 25.5 11.2 6-3.6 12.2-35.8 12.2-35.8z"/><path d="M345.793 170.38l1-7.2 9.7 3.6 2.8 4.8 1.7-5.3 5.3-1.8 2.3 4.8-3.9 5.6-7.3 1.5-11.6-6z"/></g><g class="R"><path d="M359.492 172.8s-.1-.1-.4-.3c-.3-.3-.6-.6-.9-1-1-1.2-1.8-2.6-2.4-4.1h.4l-2.3 5.7-1.1 2.8-.1.3-.2-.2-4.9-4.8c-.5-.6-1-1-1.4-1.4l-.5-.5c.2.1.4.3.6.4l1.5 1.3 5 4.7-.3.1 1.1-2.8 2.3-5.7.2-.5.1.6c.5 1.4 1.3 2.8 2.2 4.1l1.1 1.3zm9.143-3.525c-.3.6-.7 1.1-1.1 1.6-1.1 1.3-2.3 2.4-3.7 3.3l-.2.1-.1-.2c-.3-.9-.7-1.8-1.1-2.8l-1.6-4.1h.4c-.3 1.6-.7 2.9-1 3.9-.1.5-.2 1-.4 1.5 0-.5.1-1 .2-1.5l.8-3.9.1-.7.3.6 1.6 4.1 1.1 2.8-.3-.1c1.4-.9 2.6-1.9 3.8-3.1.3-.6.7-1 1.2-1.5z"/><path d="M362.948 245.652v-.7c.1-.5.1-1.2.2-2.1l.3-3.4.1-2.1.1-2.4c.2-3.3.1-7.3.1-11.7-.1-4.4-.4-9.2-.7-14.3-.7-10.1-1.7-19.3-2.5-25.9l-.9-7.8c-.1-.9-.2-1.6-.2-2.1 0-.2-.1-.5 0-.7.1.2.1.5.1.7.1.5.2 1.2.3 2.1.3 1.8.6 4.5 1 7.8.8 6.6 1.9 15.7 2.6 25.9l.7 14.3c.1 4.4 0 8.4-.2 11.7 0 .8-.1 1.6-.1 2.4-.1.7-.1 1.4-.2 2.1-.1 1.3-.2 2.5-.4 3.4-.1.9-.2 1.6-.3 2.1.2.2.1.5 0 .7zm36.217-46.778c-.2-1.4-.3-2.8-.2-4.3-.1-1.4 0-2.8.2-4.2.2 1.4.3 2.8.2 4.2.1 1.5 0 2.9-.2 4.3z"/><path d="M402.163 199.402c0 .4-.6-.7-1.9-4.4a18.35 18.35 0 0 1-1.2-4.6l1.6 4.5a39.56 39.56 0 0 1 1.5 4.5z"/></g><path d="M373.235 395.385l-.7 16.2s16.3 6.1 16.4 9.2l-31.5-.2v-25.3l15.8.1z" class="T"/><path d="M362.856 410.183c-.6.2-1 .8-.9 1.5.2.6.8 1 1.4.9.7-.2 1.1-.9.9-1.6-.2-.6-.9-1-1.6-.8" class="S"/><path d="M357.535 420.576l.1-2.6 30.2 1.2s1.4.6 1.2 1.6l-31.5-.2z" class="V X"/><g class="R"><path d="M373.05 411.456c0 .2-.8.2-1.5.7-.8.5-1.2 1.1-1.3 1.1s.1-1 1-1.5 1.9-.4 1.8-.3zm3.382 1.37c0 .1-.6.4-1.2 1.1-.5.6-.7 1.3-.8 1.3s-.2-.9.4-1.7 1.6-.8 1.6-.7zm1.776 3.983c-.1 0-.4-.7 0-1.6s1.1-1.2 1.2-1c.1.1-.4.6-.7 1.3s-.3 1.3-.5 1.3zm-5.408-9.088c-.1.1-.8-.1-1.6 0-.9 0-1.6.3-1.6.2-.1-.1.6-.7 1.6-.7s1.7.4 1.6.5zm.07-3.28c-.5.1-1.1.1-1.6 0-.6-.1-1.1-.3-1.6-.5-.3-.1-.6-.3-.9-.5-.2-.1-.3-.2-.5-.4s-.2-.6-.1-.8c.2-.2.4-.3.7-.3.2 0 .4 0 .6.1l1 .3c.5.2 1 .6 1.5 1 .7.7 1 1.3.9 1.3s-.4-.4-1.2-1c-.4-.3-.9-.6-1.4-.8l-.9-.3c-.3-.1-.6-.1-.7.1v.2l.3.3.8.5 1.5.6c.7 0 1.2.1 1.6.2z"/><path d="M372.74 404.72c-.3-.5-.4-1-.4-1.5 0-.9.2-1.9.6-2.7a1.59 1.59 0 0 1 1-.8c.3 0 .5.2.7.4 0 .2.1.4.1.6.1.4.1.7 0 1.1-.1.6-.3 1.1-.7 1.6-.6.8-1.3 1-1.3.9-.1-.1.5-.4 1-1.2.3-.5.4-1 .5-1.5v-.9c0-.3-.2-.6-.3-.6-.2 0-.4.2-.6.5s-.3.6-.4.9c-.2.5-.3 1-.3 1.6 0 1 .2 1.6.1 1.6z"/></g><path d="M318.906 390.646l-5.1 20.3-8.7 14.9c-.6 1-.3 2.3.8 2.9 0 0 .1 0 .1.1.6.3 1.4.3 2 0 3.9-2.1 18.2-9.9 18.5-11.4.3-1.7 6.8-21.1 6.8-21.1l-14.4-5.7z" class="T"/><path d="M306 428.864l20.8-12.8-.2.9c-.2.7-.7 1.4-1.3 1.8-1.7 1.2-6.5 4.2-17.3 10.1-.6.3-1.4.3-2 0zm18.46-20.438c-.6.2-1 .9-.8 1.5s.9 1 1.5.8c.7-.3 1-1 .8-1.6-.3-.6-1-.9-1.7-.7" class="X V"/><path d="M313.02 421.285a4.6 4.6 0 0 0-3.5-3.1c0-.1.3-.1.8-.1 1.3.2 2.4 1.2 2.7 2.4.1.5.1.8 0 .8zm-2.2 2.387c-.1.1-.6-.8-1.5-1.4-.6-.3-1.3-.6-1.9-.8.7-.2 1.5-.1 2.1.4 1.1.7 1.4 1.7 1.3 1.8zm5.824-5.092a11.46 11.46 0 0 0-5.1-3.8c2.3.2 4.3 1.7 5.1 3.8zm2.12-6.08c-.1.1-1.1-.7-2.5-1.1-1.4-.5-2.7-.4-2.7-.6 1.9-.4 3.9.3 5.2 1.7zm1.61-5.886c-1.5-1.2-3.5-1.7-5.4-1.3 0-.1.3-.2.8-.4 1.4-.3 3 0 4.1 1 .4.4.6.7.5.7zm-2.244-2.31c0-.3.1-.5.2-.8.3-.7.7-1.3 1.2-1.8.3-.4.8-.7 1.3-.8.4-.1.7.1.9.4.1.3.2.7.1 1a3.05 3.05 0 0 1-3.3 2c-1.4-.2-2.5-1.3-2.8-2.7-.1-.3 0-.7.2-1s.6-.4 1-.2a1.98 1.98 0 0 1 1.1 1.1c.4.6.7 1.2.9 2 .1.3.1.5.1.8-.3-.9-.8-1.8-1.3-2.5-.3-.4-.6-.7-1-.9-.2-.1-.4 0-.5.1-.2 0-.3.3-.2.5.3 1.2 1.3 2.1 2.5 2.3a2.52 2.52 0 0 0 2.8-1.7c.1-.2.1-.5 0-.7a.55.55 0 0 0-.5-.3c-.4.1-.8.4-1.1.7a9.63 9.63 0 0 0-1.6 2.5z" class="R"/><path d="M355.17 170.116l2.2 1.2-.4 3.7-3.4-.8 1.6-4.1z" class="Y"/><path d="M355.17 170.117l2.2 1.2-.4 3.7-3.4-.8 1.6-4.1z" opacity=".4"/><g class="Y"><path d="M360.296 171.066l1.7-1.5 1.5 3.9-2.2 1.1-1-3.5zm-2.484 4.807l-1 44.1 7.4 7.4 3.6-9.8-7.1-41.9-2.9.2z"/><path d="M357.857 169.866l1.8-.3c.5-.1 1.1.1 1.3.6l.9 1.7c.1.2.2.5.1.8l-.3 2c-.1.5-.5.9-1 1l-2.1.4c-.5.1-1.1-.2-1.3-.6l-1.1-2.1a.91.91 0 0 1 0-1l.7-1.7c.2-.5.6-.7 1-.8z"/></g><path d="M360.9 170.376c-.2.3-.4.5-.6.7l-3 3.2c-.2.2-.4.4-.7.6.2-.3.4-.5.6-.7l3-3.2c.3-.2.5-.4.7-.6zm-2.132 1.977c-.7-.5-1.4-1.2-1.9-1.9.7.6 1.3 1.2 1.9 1.9zm2.454 2.85c.1-.9.3-1.7.5-2.5 0-.6-.2-1.2-.5-1.7-.1-.2-.2-.5-.3-.7 0 0 .1.3.4.7.2.2.3.5.4.7.2.3.2.7.2 1-.1.7-.3 1.3-.5 1.8 0 .2-.1.5-.2.7zm19.09 69.447l-3.1 161.8c0 1.1-.9 2-2 1.9l-18.9-.1c-1.1 0-2-.9-2-2l2.9-139.3-24.5 138.3c-.3 1.7-1.9 3-3.6 2.9l-15.8-.5c-2-.1-3.5-1.7-3.4-3.7v-.4l24.8-159.5 45.6.6z" class="R"/><g class="U"><path d="M321.02 399.6v-.4l.2-1.1.7-4.3 2.6-15.7 8.6-51.8 8.4-51.8 2.5-15.7.7-4.3c.1-.5.1-.8.2-1.1 0-.2.1-.4.1-.4v.4c0 .3-.1.6-.1 1.1l-.6 4.3-2.3 15.7-8.3 51.9-8.8 51.8-2.8 15.7a130.29 130.29 0 0 1-.8 4.3c-.1.5-.2.8-.2 1.1-.1.1-.1.3-.1.3zm48.268.52c-.1 0 .1-32.9.5-73.5l.9-73.5c.1 0-.1 32.9-.5 73.5l-.9 73.5z"/><path d="M377.72 400.736c0 .1-5.1.2-11.5.2s-11.4-.1-11.4-.2 5.1-.2 11.4-.2 11.5.1 11.5.2zm-43.837-.9c-.3.1-.6.1-.9.1l-2.5.1-8.3.2-8.3.1c-1.1 0-1.9 0-2.5-.1-.3 0-.6 0-.9-.1.3-.1.6-.1.9-.1h2.5l8.3-.2 8.3-.1 2.5.1c.3-.1.6 0 .9 0zm26.663-153.21c.1.9 0 1.9-.1 2.8l-.5 6.7-.3 3.7c-.1 1-.5 2-1 2.9-.4.6-.9 1.1-1.5 1.4-.2.1-.5.2-.7.2.8-.4 1.5-1 2-1.8.5-.9.8-1.8.9-2.8l.3-3.7.6-6.7c0-.9.1-1.8.3-2.7z"/></g><path d="M336.263 231.167c2 1.8 4.7 2.6 7.4 2.1 1.9-.4 3.6-1.4 5.5-1.3 2.1.1 3.8 1.6 5.7 2.4 3.5 1.6 7.6 1.1 11.4.1a8.06 8.06 0 0 0 4.6-2.5c.8-1.1 1.3-2.5 1.4-3.8a48.66 48.66 0 0 0 .6-7.6c.1-1.6-.3-3.2-1.2-4.5-.9-1-2.1-1.6-3.4-1.7s-2.6 0-3.9.2c-10.4 1.8-20.1 5.9-28.3 12.1" opacity=".3"/><path d="M354.414 222.828s-23.7 10.6-26.1 11.1c-8 1.8-17.1-5.8-14.6-14.4.9-3.2 13.7-38.6 13.7-38.6l12.1 16.7-5.1 17.1 13.4-.9 6.6 9z" class="S"/><path d="M346.733 214.074c-.3.1-.6.1-.9.1l-2.6.2-8.8.6h-.3l.1-.3.8-2.7 3.1-10.2 1-3.1c.1-.4.2-.8.4-1.1-.1.4-.1.8-.3 1.2l-.9 3.1c-.7 2.6-1.8 6.3-3 10.3-.3.9-.5 1.8-.8 2.6l-.2-.3 8.8-.5 2.6-.1c.3.1.7.1 1 .2zm4.964 10.106c0 .1-5.2 2.4-11.6 5l-11.8 4.6c-.1-.1 5.1-2.4 11.6-5l11.8-4.6z" class="R"/><path d="M348.91 213.287l-1.9-9.1c-.1-.6.3-1.2.9-1.4h.2l23.6.1c.6 0 1.2.5 1.2 1.2v.1l-2.5 20.8c-.1.8-.8 1.4-1.6 1.4l-15.4-.1c-.7 0-1.4-.5-1.6-1.2l-2.9-11.8z" class="U"/><path d="M346.83 208.493c1 0 1.9.6 2.3 1.6.3 1 .8 1.8 1.6 2.5 1.2.6 3.1 1.1 4.2.6s5.2-4.3 6-3.9 1.4 1.4.6 2.2-4.6 3.4-3.9 4.2 8.9-2.9 10.2-2.5 2 1.1 1.3 1.6-6.3 2.6-6.6 3.3c0 0 8.4-2.2 8.7-1.7s.8 1.4 0 1.7-8.1 2.2-8.7 2.5c-1 .4-2.1.8-3.2.9l-3.4 1.1c-1.7.6-3.6.5-5.2-.1l-.9-.3a3.38 3.38 0 0 1-2.1-3.3l.2-2.9-.9-2.4-.2-5.1z" class="b"/><path d="M360.937 206.233c0 .5-.4.9-.9.9s-.9-.4-.9-.9.4-.9.9-.9c.5.1.9.5.9.9z" class="c"/><g class="U"><path d="M462.037 279.82h-70.4v-2.6h67.9c1.4 0 2.5 1.2 2.5 2.6z"/><path d="M394.937 238.438h47.3a3.33 3.33 0 0 1 3.3 3.3v34.2a3.33 3.33 0 0 1-3.3 3.3h-47.3a3.33 3.33 0 0 1-3.3-3.3v-34.2a3.33 3.33 0 0 1 3.3-3.3z"/></g><path d="M393.89 240.38h49.5v36.4h-49.5z" class="c"/><path d="M443.32 276.72v-36.3h-49.5l.1-.1v36.4l-.1-.1h49.3l.2.1h-49.6v-36.4h49.7v35.8c0 .4-.1.6-.1.6z" class="R"/><g class="S"><path d="M435.933 250.112h-2.6l-7.2.1h-24.4l.1-.1v16.8l-.1-.1h-.1v-16.7h34.3z"/><use xlink:href="#B"/><use xlink:href="#B" x="-0.248" y="2.262"/><use xlink:href="#B" y="4.626"/><use xlink:href="#B" y="6.939"/><use xlink:href="#B" y="9.262"/><path d="M401.794 264.503l17.1-.1 17.1.1c0 .1-7.7.1-17.1.1s-17.1 0-17.1-.1z"/><use xlink:href="#C"/><use xlink:href="#C" x="6.854"/><use xlink:href="#C" x="13.697"/><use xlink:href="#C" x="20.562"/><use xlink:href="#C" x="27.415"/></g><g class="T"><path d="M435.894 252.998c0 .1-.1.1-.2.2l-.8.5-2.9 2c-2.4 1.7-5.9 4-9.7 6.6h-.1l-2.9-1-3.9-1.3h.1l-6.9 4.6-5 1.7-1.4.5-.4.1h-.1s.1 0 .1-.1l.3-.1 1.3-.5 4.9-1.8 6.8-4.6h.1l3.9 1.3 2.9 1h.2l9.8-6.6 2.9-1.9.8-.5s.1-.1.2-.1z"/><circle cx="408.547" cy="264.547" r=".4"/><circle cx="415.4" cy="259.921" r=".4"/><circle cx="422.254" cy="262.195" r=".4"/><circle cx="429.178" cy="257.628" r=".4"/></g><g class="U"><path d="M435.917 264.53s-.1 0-.1-.1l-.4-.2-1.4-.9-5-3.3h.1l-6.8 4.6-.1.1-.1-.1-3.6-4.9-3.2-4.4h.2l-6.9 6.9-5.1 1.7-1.4.4-.4.1s0 .1-.1.1c0 0-.1 0-.1-.1 0 0 0-.1.1-.1h.1l.4-.1 1.4-.5 5.1-1.7 6.9-7.1v.3l3.3 4.4 3.6 4.9h-.2l6.9-4.6h.2l5 3.4 1.4.9.3.2c-.1 0-.1.1-.1.1z"/><circle cx="415.4" cy="255.295" r=".4"/><circle cx="408.547" cy="262.234" r=".4"/><circle cx="422.254" cy="264.547" r=".4"/><circle cx="429.108" cy="260.338" r=".4"/></g><g class="S"><path d="M405.682 268.82c-.5.1-.9.1-1.3 0h1.3zm7.006 0c-.5.1-.9.1-1.3 0h1.3zm7.005 0c-.5.1-.9.1-1.3 0h1.3zm7.005 0c-.5.1-.9.1-1.3 0h1.3zm7.006 0c-.5.1-.9.1-1.3 0h1.3zm-32.94-2.02c-.4.1-.7.1-1.1 0h1.1zm0-2.68c-.4.1-.7.1-1.1 0h1.1z"/><use xlink:href="#D"/><use xlink:href="#D" y="-2.69"/><path d="M400.763 256.048c-.4.1-.7.1-1.1 0h1.1zm0-2.7c-.4.1-.7.1-1.1 0h1.1z"/><use xlink:href="#D" y="-10.762"/></g><path d="M401.617 244.354h9.8v.7h-9.8z" class="T"/><path d="M428.95 246.327c0 .1-6.2.1-13.7.1s-13.7 0-13.7-.1 6.1-.1 13.7-.1l13.7.1zm-10.02 25.85l-8.4.1c-4.7 0-8.4 0-8.4-.1s3.7-.1 8.4-.1l8.4.1zm-12.755 1.264c-1.2.1-2.4.1-3.6 0h3.6zm27.95-1.487l-5.9.1c-3.2 0-5.9 0-5.9-.1s2.7-.1 5.9-.1l5.9.1zm-6.49.817c-1.3.1-2.5.1-3.7 0h3.7zM135.496 420.754l14.7-130.6 12.5 4.4-20.4 126.2h-6.8z" class="R"/><path d="M129.198 279.693h377.8v16.5h-377.8z" class="U"/><g class="R"><path d="M209.196 279.935s0 .1-.1.2-.2.3-.4.5c-.6.6-1.2 1.1-1.9 1.5-1.1.6-2.4 1-3.6 1.2-1.7.2-3.4.3-5.1.2-2.1-.1-4.1-.3-6.1-.7-2.3-.4-4.6-.7-7-.8-5-.2-10.3 1.1-15.7 3s-10.4 4.1-15.2 5.5c-2.3.7-4.6 1.1-7 1.4a32.11 32.11 0 0 1-6.2 0c-3-.3-5.9-1.2-8.5-2.7-1-.5-1.8-1.2-2.6-2 .1 0 .1.1.2.1l.5.4c.6.5 1.3.9 2 1.3 2.6 1.4 5.5 2.3 8.4 2.5 2 .2 4.1.2 6.1 0 2.3-.3 4.6-.7 6.9-1.4 4.8-1.3 9.8-3.5 15.2-5.5 5.4-1.9 10.8-3.2 15.9-3a40.62 40.62 0 0 1 7 .9c2 .4 4 .6 6.1.8 1.7.1 3.4.1 5-.2 1.3-.2 2.5-.5 3.6-1.1.9-.6 1.8-1.3 2.5-2.1zm-41.35.202l-1.1 1c-1.1.8-2.2 1.6-3.4 2.2-1.8 1-3.7 1.7-5.6 2.3-2.4.7-4.9 1.1-7.4 1.2-4.5.2-9.1-.8-13.2-2.7-1.3-.6-2.4-1.5-3.2-2.6-.2-.3-.4-.6-.5-1-.1-.1-.1-.2-.1-.4a9.13 9.13 0 0 0 .8 1.3c.9 1 1.9 1.9 3.2 2.4 4.1 1.8 8.5 2.7 13 2.5 2.5-.1 4.9-.5 7.3-1.1 3.2-.9 6.3-2.3 9.1-4.2.3-.3.7-.6 1.1-.9zM256.5 290.7c.2.1.4.1.6.2l1.7.5c2.3.4 4.6 0 6.6-1v.2a16.29 16.29 0 0 0-8.2-3.2 15.65 15.65 0 0 0-10.7 2.8c-.4.2-.7.6-.8 1.1 0 .5.3.9.7 1.1.5.2 1 .4 1.5.5l1.6.4 6.7 1.3c2.4.4 4.7.5 7.1.5 1.2 0 2.5-.1 3.7-.4.6-.1 1.2-.2 1.8-.4.6-.1 1.2-.3 1.8-.6.9-.4 1.7-.9 2.3-1.7.6-.7.8-1.7.4-2.5s-1-1.5-1.8-2-1.6-.9-2.5-1.2c-3.4-1.3-6.9-2-10.5-2.2-6-.5-12.1.5-17.9 2.7-3.9 1.5-7.5 3.4-10.8 5.9-1.2.9-2 1.6-2.6 2.1l-.7.6c-.1.1-.2.1-.2.2.1-.1.1-.2.2-.2l.6-.6c.5-.5 1.4-1.3 2.6-2.2a43.98 43.98 0 0 1 28.8-9c3.6.2 7.2.9 10.6 2.2.9.3 1.8.8 2.6 1.3a4.73 4.73 0 0 1 2 2.2c.4 1 .2 2.1-.5 3-.6.7-1.4 1.3-2.4 1.7-.6.3-1.2.5-1.8.6-.6.2-1.2.3-1.9.4-1.2.2-2.5.3-3.7.4-2.4.1-4.8-.1-7.2-.5-2.3-.3-4.6-.8-6.7-1.3l-1.7-.4c-.6-.1-1.1-.3-1.6-.6-.3-.1-.5-.3-.7-.6s-.3-.6-.2-.9c.1-.6.5-1.1 1-1.4 3.2-2.2 7.1-3.2 10.9-2.8 3 .3 5.9 1.4 8.3 3.3l.2.1-.2.1c-2.1 1.1-4.5 1.4-6.8.9-.7 0-1.4-.3-2.2-.6zm48.674-10.325c.2.3.3.5.4.8.2.8.3 1.6.2 2.5a12.25 12.25 0 0 1-3.7 7.2c-1 1.1-2.2 2.1-3.4 2.9-1 .7-2.2 1.2-3.3 1.6-.8.3-1.6.5-2.4.6-.3.1-.6.1-.9.1 0-.1 1.3-.3 3.2-1 1.1-.4 2.2-1 3.2-1.7 1.2-.8 2.3-1.8 3.3-2.9 1.9-1.9 3.2-4.3 3.7-6.9a8.72 8.72 0 0 0-.3-3.2zm67.876 14.985a13.65 13.65 0 0 0-1.7-1.7c-1.7-1.4-3.7-2.3-5.9-2.7-1.5-.2-3-.2-4.5.1-1.8.5-3.6.6-5.4.5-2-.3-3.8-1.2-5.2-2.6-1.6-1.3-3.3-2.4-5.3-3.1-3.8-1.2-7.9-1.3-11.7-.1a26.47 26.47 0 0 0-8.7 4.4c-1.8 1.3-3.5 2.7-5 4.3l-1.3 1.2c-.1.2-.3.3-.5.4.1-.2.3-.3.4-.5.3-.3.7-.8 1.2-1.3 1.5-1.6 3.2-3.1 5-4.4 2.6-2 5.6-3.6 8.7-4.5 3.9-1.2 8.1-1.1 12 .2 2 .7 3.8 1.8 5.4 3.2 1.4 1.3 3.1 2.2 5 2.5 1.7.1 3.5-.1 5.2-.4 1.5-.3 3.1-.3 4.6-.1a12.48 12.48 0 0 1 6 2.9c.7.4 1.2 1 1.7 1.7zm60.504-15.5c-.1.2-.3.4-.4.6l-1.3 1.5c-1.7 1.8-3.5 3.5-5.5 4.9-3 2.2-6.2 3.9-9.6 5.3-2 .8-4.1 1.5-6.2 2-2.2.5-4.5.8-6.8.8-4.5 0-9-1-13.1-2.7-3.4-1.4-6.6-3.2-9.5-5.4a42.78 42.78 0 0 1-5.5-4.9c-.6-.6-1-1.2-1.3-1.5-.2-.2-.3-.4-.4-.6l.5.5c.3.3.7.9 1.4 1.5 1.7 1.8 3.6 3.4 5.5 4.8a46.3 46.3 0 0 0 9.5 5.3c4.1 1.7 8.5 2.6 12.9 2.7 2.3 0 4.6-.3 6.8-.9 2.1-.5 4.1-1.1 6.1-1.9 3.4-1.3 6.6-3.1 9.5-5.2 2-1.4 3.9-3 5.6-4.8.6-.6 1-1.1 1.4-1.5.1-.2.3-.4.4-.5zm-8.62-.15l-.3.3c-.2.2-.5.4-1 .7-1.2.8-2.5 1.5-3.8 2.1-1.9 1-3.9 1.8-6 2.4-2.5.8-5.1 1.3-7.8 1.3-4.8-.1-9.6-1.3-13.9-3.5-1.3-.6-2.6-1.4-3.8-2.2-.4-.3-.7-.5-1-.7s-.1-.2-.1-.3c.5.2.9.5 1.4.8 1.2.8 2.5 1.4 3.8 2.1a32.86 32.86 0 0 0 13.7 3.3c2.6 0 5.2-.5 7.7-1.3 2-.6 4-1.4 6-2.3 1.6-.8 3-1.5 3.8-2 .4-.2.8-.5 1.3-.7zm38.378 1.622h-.4l-1.2-.1-.9-.1h-3.7l-1.5.1-1.6.2c-1.1.1-2.3.4-3.6.6-2.7.6-5.3 1.4-7.9 2.4s-5 2.2-7.4 3.6l-3 2-1.3 1-1.2.9c-.8.6-1.4 1.2-2 1.7l-.8.7-.5.7-.9.9.8-.9.6-.7.8-.7c.6-.5 1.2-1.2 1.9-1.8l1.2-1 1.3-1c.9-.7 1.9-1.3 3-2 2.4-1.4 4.9-2.7 7.5-3.7s5.3-1.8 8-2.3c1.3-.2 2.5-.5 3.6-.5l1.5-.3 1.5-.1h3.7l.9.1 1.2.2c.2.1.3.1.4.1z"/><path d="M479.475 278.148v.3c0 .3 0 .6-.1.9-.2 1.1-.4 2.2-.9 3.2-1.5 3.3-4 6.2-7.1 8.1a36 36 0 0 1-9.9 4.2c-1.3.4-2.4.6-3.2.8-.4.1-.8.2-1.2.2.4-.2.7-.3 1.1-.4l3.1-1c3.4-1 6.7-2.4 9.8-4.3 4.6-2.5 7.6-7 8.4-12zm-99.662 16.882c-.6-.9-1.3-1.7-2.1-2.5-2.2-2-4.8-3.4-7.6-4.3-1.9-.6-3.9-1-5.9-1.3l-6.9-1c-2.6-.5-5.1-1.1-7.5-1.9-2.6-.9-5.3-1.5-8-1.9-5.5-.6-10.9.2-15.9 2.1-2.2.8-4.3 1.8-6.4 2.9-2 1-3.7 2-5.4 2.9-3.3 1.8-5.8 3.4-7.6 4.5l-2.1 1.3-.5.3c-.1 0-.1.1-.2.1 0-.1.1-.1.2-.1l.5-.4c.5-.3 1.1-.8 2-1.3 1.8-1.1 4.3-2.7 7.6-4.6l5.4-3c2.1-1.1 4.2-2.1 6.4-2.9 5-2 10.5-2.8 15.9-2.2 2.8.4 5.5 1.1 8.1 2 2.5.8 5 1.4 7.5 1.9l6.9 1.1c2 .3 4 .8 6 1.4 2.9.9 5.5 2.4 7.6 4.4.8.6 1.5 1.5 2 2.5zm-85.183-15.093c0 .4 0 .7-.1 1.1-.1 1-.4 1.9-.7 2.8-1.1 3-3.2 5.6-5.8 7.4-2.7 1.7-5.6 3-8.6 4-1.1.4-2.1.7-2.7.8-.3.1-.7.2-1 .2.3-.2.6-.3 1-.4l2.7-1c3-1 5.8-2.4 8.5-4a16.34 16.34 0 0 0 5.8-7.2l.9-3.7zm-87.624 16.297l.9-.9c.6-.6 1.5-1.3 2.7-2.2 3.1-2.3 6.3-4.4 9.6-6.2 3.9-2.2 7.6-3.9 10.3-5.1 1.3-.6 2.4-1.1 3.2-1.4.3-.2.7-.4 1.1-.5-.4.2-.7.5-1.1.6l-3.1 1.5-10.2 5.2c-3.3 1.8-6.6 3.9-9.7 6.1l-2.8 2.1c-.2.3-.6.6-.9.8zm17.747-15.604c0 .1-.9-.1-2.4 0-2.2.2-4.3.9-6.3 1.9a55.91 55.91 0 0 0-8.2 5.5c-1.6 1.2-3.2 2.2-4.9 3.2-1.9 1-3.9 1.7-5.9 2.3-4 .9-8 1.4-12.1 1.5-3.7.1-7.1 0-9.9.1a73.54 73.54 0 0 0-6.6.6c-.8.1-1.4.3-1.8.4-.2.1-.4.1-.6.1.2-.1.4-.2.6-.2.4-.1 1-.3 1.8-.4 2.2-.4 4.4-.7 6.6-.8 2.8-.2 6.2-.1 9.9-.2 4-.1 8-.6 12-1.5 2-.5 4-1.3 5.8-2.2 1.7-.9 3.3-2 4.9-3.1 2.6-2.1 5.4-3.9 8.3-5.4 2-1 4.2-1.6 6.4-1.8.6 0 1.2 0 1.8.1a.47.47 0 0 1 .6-.1zm235.667-1.036c0 .1-15.8.2-35.3.2s-35.2 0-35.2-.2 15.8-.2 35.3-.2l35.2.2zm-198.6-7.32h50.9v7.6h-50.9z"/></g><path d="M261.82 274.03h13.5v4.1h-13.5z" class="S"/><path d="M266.364 264.666h50.9v7.6h-50.9z" class="T"/><path d="M282.752 266.495h34.5v3.8h-34.5z" class="S"/><path d="M258.76 257.057h50.9v7.6h-50.9z" class="R"/><path d="M296.217 258.813h13.5v4.1h-13.5z" class="S"/><path d="M437.684 392.213l6 15.1s-13.3 11.2-12.4 14.1l29.7-10.7-8.5-23.9-14.8 5.4z" class="Y"/><path d="M452.43 402.673c.7 0 1.2.4 1.3 1.1s-.4 1.2-1.1 1.3c-.7 0-1.3-.5-1.4-1.1 0-.6.6-1.4 1.3-1.3" class="S"/><path d="M460.9 410.72l-1-2.4-28 11.2s-1.1 1.1-.6 1.9l29.6-10.7z" class="V X"/><g class="R"><path d="M443.217 407.273c.1.1.8-.1 1.7.2.9.2 1.5.7 1.6.6s-.4-.9-1.5-1.1-1.9.2-1.8.3zm-2.642 2.465c0 .2.7.2 1.4.6s1.1 1 1.2 1-.1-.9-1-1.4-1.7-.4-1.6-.2zm-.465 4.322c.1 0 .1-.8-.6-1.5s-1.5-.7-1.5-.6.6.4 1.1 1 .9 1.1 1 1.1zm2.094-10.36c.1.1.7-.3 1.5-.6s1.6-.2 1.6-.4c.1-.1-.8-.4-1.7-.1s-1.5 1-1.4 1.1zm-1.154-3.044c.5 0 1-.2 1.5-.5s1-.6 1.4-1c.2-.2.5-.5.7-.8.1-.2.2-.3.3-.5.1-.3 0-.6-.2-.8s-.5-.2-.8-.1c-.2.1-.4.2-.5.3-.3.2-.6.4-.8.7-.4.4-.8.9-1 1.4-.4.3-.6.8-.6 1.3.2.1.3-.5.9-1.2.3-.5.7-.9 1.1-1.2.2-.2.5-.4.8-.6s.6-.3.7-.2c0 0 .1.1 0 .2s-.1.3-.2.4c-.2.3-.4.5-.6.7l-1.2 1.1c-.7.2-1.1.5-1.5.8z"/><path d="M441.296 400.76c.1-.5.1-1.1-.1-1.6-.3-.9-.8-1.7-1.5-2.3a1.48 1.48 0 0 0-1.3-.4c-.3.1-.5.4-.5.6v.6c.1.3.2.7.4 1 .3.5.7 1 1.2 1.3.9.6 1.5.5 1.5.5a9.13 9.13 0 0 1-1.3-.8c-.4-.3-.7-.8-1-1.2l-.3-.9c-.1-.3 0-.6.1-.6.3 0 .5.1.7.3s.5.4.7.7c.3.4.6.9.8 1.4.5.8.5 1.4.6 1.4z"/></g><path d="M465.597 389.454l6 15.1s-13.3 11.2-12.4 14.1l29.7-10.7-8.5-23.9-14.8 5.4z" class="Y"/><path d="M480.344 399.914c.7 0 1.2.4 1.3 1.1s-.4 1.2-1.1 1.3c-.7 0-1.3-.5-1.4-1.1 0-.6.6-1.4 1.3-1.3" class="S"/><path d="M488.814 407.96l-1-2.4-28 11.2s-1.1 1.1-.6 1.9l29.6-10.7z" class="V X"/><g class="R"><path d="M471.13 404.513c.1.1.8-.1 1.7.2.9.2 1.5.7 1.6.6s-.4-.9-1.5-1.1-1.9.2-1.8.3zm-2.642 2.467c0 .2.7.2 1.4.6s1.1 1 1.2 1-.1-.9-1-1.4-1.7-.4-1.6-.2zm-.463 4.32c.1 0 .1-.8-.6-1.5s-1.5-.7-1.5-.6.6.4 1.1 1 .9 1.1 1 1.1zm2.092-10.35c.1.1.7-.3 1.5-.6s1.6-.2 1.6-.4c.1-.1-.8-.4-1.7-.1s-1.5 1-1.4 1.1zm-1.155-3.053c.5 0 1-.2 1.5-.5s1-.6 1.4-1c.2-.2.5-.5.7-.8.1-.2.2-.3.3-.5.1-.3 0-.6-.2-.8s-.5-.2-.8-.1c-.2.1-.4.2-.5.3-.3.2-.6.4-.8.7-.4.4-.8.9-1 1.4-.4.3-.6.8-.6 1.3.2.1.3-.5.9-1.2.3-.5.7-.9 1.1-1.2.2-.2.5-.4.8-.6s.5-.3.7-.2c0 0 .1.1 0 .2s-.1.3-.2.4c-.2.3-.4.5-.6.7l-1.2 1.1c-.7.2-1.1.5-1.5.8z"/><path d="M469.21 398c.1-.5.1-1.1-.1-1.6-.2-.6-.4-1.1-.8-1.6-.2-.3-.4-.5-.7-.8-.3-.2-.8-.4-1.3-.3-.3.1-.5.4-.5.6v.6c.1.3.2.7.4 1 .3.5.7 1 1.2 1.3.9.6 1.5.5 1.5.5a9.13 9.13 0 0 1-1.3-.8c-.4-.3-.7-.8-1-1.2l-.3-.9c-.1-.3 0-.6.1-.6.1-.1.5.1.7.3s.5.4.7.7c.3.4.6.9.8 1.4.5.8.5 1.4.6 1.4z"/></g><path d="M485.998 194.094l-2.8 23.2 4.4 10.7-17.4.6-3.6-8.4s-8.6-1-9-6.5c-.3-3.5 5.4-29.2 5.4-29.2l23 9.6z" class="Z"/><path d="M480.417 221.698c2.1-1.4 3.1-2.3 4-4.6l2.5-7c1.1-2.4 2.6-4.5 3.7-6.9s1.6-5.2.6-7.6c0 0-.4-3.1-4.5-4.2 0 0-2.3-6.5-7.7-7.1-7.3-.8-7-3-11.8-4.8-2.3-1.1-5-.1-6.1 2.2 0 0-2.9 1.3-3.6 4v.1c-.7 2.7.5 5.6 3 7 .3.2.6.3.9.5.9.4 1.6 1 2.2 1.8.7 1.3.8 2.8.3 4.2s-.7 2.8-.7 4.2c.1.5.3 1.1.8 1 .6 0 .7-.8.9-1.4.4-1.3 1.8-2 3.1-1.6.4.1.8.4 1 .7.8.9.8 2.3.1 3.2-.8 1-2.2 1.7-2.7 2.9-.9 2.1 1.3 4.5 2 5.9.2.5.5 1 .9 1.4 1.7 2.1 3.7 3.9 6.1 5.3a5.8 5.8 0 0 0 5.7.3" class="R"/><path d="M408.732 249.775l-7.1-3.2c-2.5-.9-3.5-1.5-3.3-1.9.3-.6.1-.4 5 .6 0 0-6.9-1.5-5.1-2.4.8-.4 6.5.8 6.5.8-4.7-.5-6.4-1.5-6.3-2.2.2-1 7.1.5 7.1.5l-6.2-1.5c-.9-.5.2-.9 1.3-1 1.2-.1 7.9.1 9.9.1.6.1 1.2-.4 1.3-1v-.2c-.6-2.8.5-5.3 1.1-5.8s1.5.1 1.3 1c-.1 1-.1 1.9 0 2.9.1.8.3 1.5.6 2.2l1.1 2 9.7 10.7-4.1 10-12.8-11.6z" class="Z"/><path d="M406.168 245.903c-2.2-.2-4.5-.7-6.6-1.6 2.3.2 4.5.8 6.6 1.6zm.655-1.8c-2.4-.1-4.8-.5-7.1-1.2 2.4 0 4.8.5 7.1 1.2zm.564-1.935c-2.3-.1-4.5-.4-6.7-1.1 2.2.1 4.5.5 6.7 1.1z" class="a"/><g class="R"><path d="M472.54 295.168l-41.7 6.3c-5.7.9-10.8 4.1-14 9-3.2 5-4.1 11.1-2.5 16.8l22 70.2 19.9-7.5-12.2-62.2 64.4-4.3v-28.3l-36-1.3"/><path d="M501.882 295.168l-41.7 6.3c-5.7.9-10.8 4.1-14 9-3.2 5-4.1 11.1-2.5 16.8l19.2 66 22.2-5.9-11.7-59.6 43.1-2.9v-28.3l-14.6-2.7"/></g><g class="T"><path d="M419.045 243.2c.9-.1 29.2 21.9 29.2 21.9l-18.1 7.2-18.3-18.1s-1.1-9.9 7.2-11z"/><path d="M510.595 234.5c-4.7-6.8-12.7-9.2-15.5-9.8-.6-.1-1.2-.2-1.8-.2h-24.1c-4.4 0-8.5 1.7-11.7 4.7-3.6 3.6-6.7 7.6-9.3 11.9l-12.1 16.8-7.5 12.5 1.5 1.9c3.5 4.6 9.7 6.1 15 3.8 2.5-1.1 4.3-3.3 5.9-5.7 3-4.5 6.2-9.3 8.3-13l12.2 34.8-6.4 4.1 27.4 11.1 28.5-12.2-7.9-28.1s12.5 1.2 13.7-3.7-10.4-20.5-16.2-28.9z"/></g><path d="M507.775 247.285c2.1 3.4 4 6.9 5.7 10.5.2.5.9.1.7-.4-1.7-3.6-3.7-7.1-5.9-10.4-.2-.3-.7 0-.5.3zm5.665-2.03c2.1 3.4 4 6.9 5.7 10.5.2.5.9.1.7-.4-1.7-3.6-3.7-7.1-5.9-10.4-.2-.3-.7 0-.5.3zm-11.112 2.846c1.2 4.7 2.2 9.4 2.9 14.2.1.7 1.1.4 1-.3-.8-4.7-2-9.4-3.5-14 0-.1-.2-.2-.3-.2s-.2.1-.1.3zm-12.915 1.288c1.4 4.6 2.2 9.3 2.4 14 0 .7 1.1.7 1 0-.2-4.8-1.2-9.6-2.9-14.2-.1-.2-.6-.1-.5.2zM500 260.8c-1.5-4.3-2.6-8.7-3.1-13.2-.1-.6-1-.6-1 0 0 4.7 1.2 9.4 3.6 13.4.1.3.6.1.5-.2zm-16.323-11.06c.1 4.5.8 9 1.9 13.4.2.6 1 .3.9-.3l-2.4-13.2c0-.2-.5-.1-.4.1zm-6.932.8c1.2 4.9 2.1 9.8 3 14.8.1.5.9.4.8-.1-.7-5-1.8-10-3.5-14.8 0-.1-.1-.2-.2-.1-.1 0-.2.1-.1.2zm-6.32 1.188c0 4.6.5 9.2 1.5 13.6.1.5.8.3.7-.2-.8-4.4-1.3-8.9-1.6-13.4 0-.2-.1-.3-.3-.3s-.3.1-.3.3zm-20.295 12.487c3.8-3.5 7.1-8.1 10.3-12.2.3-.4-.3-.8-.6-.5-3.4 3.9-7.2 8-9.9 12.5 0 .1 0 .2.1.2h.1zm-4.426-4.012c3.5-3.1 6.5-6.8 8.8-10.8.3-.5-.4-.9-.7-.4-2.6 3.8-5.5 7.3-8.4 10.9-.1.1-.1.2 0 .3s.3.1.3 0zm2.74-12.947c-2.5 2.8-5.1 5.6-7.5 8.5-.3.4.2 1 .6.6 2.5-2.8 4.9-5.9 7.2-8.8.1-.2-.1-.6-.3-.3zm15.546 5.144c1.1 4.5 1.7 9.1 2.7 13.7.1.4.8.3.8-.1-.6-4.6-1.6-9.2-2.9-13.7-.1-.2-.2-.3-.4-.2-.2 0-.3.1-.2.3z" class="c"/><path d="M500.498 262.133c-2 0-3.9 1-5.1 2.6s-2.1 3.4-2.7 5.3c-2 6-3 12.3-2.8 18.6 0 1.9.1 4.1-1.4 5.4-1.3 1.1-3.1 1-4.6 1.6-2.5 1-4.6 4.2-3.9 6.8l13.8 5.2 6.7-45.5z" opacity=".3"/><path d="M485.02 291.23c-.5.3-1 .5-1.6.6-2.6.7-5.4.8-8.1.4-.6-.1-1.1-.2-1.6-.5 3.8.5 7.6.4 11.3-.5z" class="R"/><g class="U"><path d="M435.4 328.942l-11 91.9h4.7l11.7-91.9h-5.4zm43.742 0l10.1 91.9h5.2l-9.9-91.9h-5.4zm54.104 0l8.4 91.9h5.8l-9.6-91.9h-6.9"/><path d="M505.266 249.953h40.6c3.5 0 6.3 2.8 6.3 6.3 0 .3 0 .6-.1.9l-9.6 67.1c-.4 2.7-2.7 4.7-5.4 4.7h-52.5l20.7-79z"/><path d="M430.06 328.953c.1-1 0-6.1 0-6.1l50.4.9c3.8.1 7.2-2.7 7.8-6.5l10-61.3a7.19 7.19 0 0 1 7.1-6l-11 69.1c-.9 5.7-5.8 9.9-11.6 9.9h-52.7z"/></g><g class="R"><path d="M505.33 249.953v.2l-.1.6-.3 2.4-1.3 8.7-7 44.6-1.1 6.9a63.67 63.67 0 0 1-1.2 6c-.6 1.7-1.3 3.2-2.2 4.7-.7 1.1-1.6 2-2.6 2.8-.6.5-1.3.9-2.1 1.2-.3.1-.5.2-.8.2 1-.4 1.9-.9 2.8-1.6a14.22 14.22 0 0 0 4.5-7.4 63.67 63.67 0 0 0 1.2-6l1.1-6.9 2.5-15.8 4.6-28.8 1.5-8.7.4-2.4c0-.2.1-.4.1-.6-.1 0-.1 0 0-.1zm2.243.464c-1.8-2.2-3.3-4.6-4.5-7.2 1.7 2.2 3.2 4.6 4.5 7.2zm-76.66 14.803a70.6 70.6 0 0 1 6.7-9.5c-2 3.3-4.3 6.5-6.7 9.5zm33.977-16.213c-.2.4-.3.7-.6 1l-1.6 2.7-5.5 8.9c-2.2 3.4-4.3 6.5-5.9 8.7-.8 1.1-1.4 2-1.9 2.6-.2.3-.5.6-.8.9.2-.4.4-.7.6-1l1.8-2.6 5.8-8.7 5.6-8.8 1.7-2.7c.3-.4.5-.7.8-1zM221.348 145.3c-1.8-2.7-.7-6.8 2.1-8.6 2.9-1.7 6.6-1.4 9.2.7 2.6 2 3.4 5.4 2.9 8.4-.3 2.2-3.8 6.7-7 4.7"/><path d="M201.636 163.9c-7.3-14.1 7.9-22.1 16.5-20.1 8.1 1.9 11.7 5.7 13.3 10.9 1.7 5.3 1.7 11 0 16.3-.9 2.6-2.6 5.2-5.3 5.7"/></g><path d="M223.62 151.52c1.4.1 2.5 1.2 2.6 2.6l.3 36.7c.2 4.3-6 7.1-10.7 7.2s-5-2.2-5.2-6.3l-.6-9.4s-6-.7-7.6-8.3c-.8-3.8-.9-10.1-.9-15.3.1-4.6 2.8-10.5 7.5-10.2l14.6 3z" class="Z"/><g class="R"><path d="M203.67 163.496c0 .5.5 1 1 .9.5 0 1-.4 1-.9a1.08 1.08 0 0 0-1-1c-.6.1-1 .5-1 1z"/><use xlink:href="#E"/><path d="M213.69 162.995a1.08 1.08 0 0 0 1 1c.5 0 1-.4 1-.9a1.08 1.08 0 0 0-1-1c-.6 0-1 .4-1 .9z"/><use xlink:href="#E" x="10.476" y="-0.325"/><path d="M210.117 169.82l-1.7-.2c-.3 0-.5-.1-.6-.2 0-.3 0-.6.1-.8l.7-2.1c.7-1.8 1.2-3.6 1.5-5.5-.8 1.7-1.5 3.5-2 5.4l-.7 2.1c-.2.3-.2.7-.1 1.1.1.2.3.3.5.4h.5c.6-.1 1.2-.1 1.8-.2z"/></g><path d="M210.063 182.48c3.6-.1 7.2-1.3 10.2-3.3 0 0-2.2 5.4-10 5.1l-.2-1.8zm.69-10.123c.4-.5 1-.8 1.7-.8.5 0 .9.2 1.2.6.3.3.4.9.1 1.3s-.9.6-1.4.4-1-.4-1.4-.7l-.3-.3c-.1-.2-.1-.4.1-.5" class="a"/><g class="R"><path d="M213.288 170.395c-.2 0-.1 1.2-1.1 2s-2.2.8-2.2 1c0 .1.3.2.8.2.7 0 1.3-.3 1.8-.7s.8-1 .8-1.7c.1-.5 0-.8-.1-.8zm-.228-10.515c.1.3 1.2.1 2.4.2 1.3.1 2.3.4 2.4.1.1-.1-.1-.4-.5-.7-1.1-.6-2.5-.7-3.7-.2-.5.2-.7.5-.6.6z"/><path d="M203.37 158.95c.2.2.9-.1 1.8-.1.9-.1 1.6.1 1.8-.2.1-.1-.1-.4-.4-.6a2.76 2.76 0 0 0-2.9.2c-.3.3-.4.6-.3.7zm.377-9.838c-.4 2.8.8 5.6 3.1 7.2 1.4.8 2.8 1.4 4.4 1.7l2.9.8c2.1.7 4.4 1.1 6.6 1.2-.1 2.5-.4 4.2 1 6.4 1.2 1.9 3 3.3 5.3 2.7.8-5 1.1-10 .9-15.1.1-1.3-.2-2.6-.8-3.8-1.2-1.8-3.6-2.1-5.8-2.3l-9-.7c-1.5-.2-3-.2-4.4 0a5.83 5.83 0 0 0-3.8 2.1"/></g><path d="M232.852 160.03h-.3c-.3 0-.7-.1-1-.2-.5-.2-.9-.5-1.3-.9-.5-.5-.9-1-1.3-1.6-.5-.6-1.1-1.2-1.8-1.6-.8-.5-1.6-.9-2.5-1.2-2.1-.5-4.2-.8-6.4-.7s-4.3-.1-6.5-.4c-1.8-.4-3.4-1.2-4.7-2.5-.5-.5-.9-1-1.2-1.6-.2-.5-.4-.9-.5-1.5-.1-.4-.1-.9-.1-1.3 0 .4.1.9.2 1.3.1.5.3 1 .6 1.4.3.6.7 1.1 1.2 1.6 1.3 1.2 2.8 2 4.6 2.4 2.1.4 4.3.5 6.4.4 2.2-.1 4.3.2 6.4.7.9.3 1.8.7 2.6 1.2.7.5 1.3 1 1.8 1.7.5.6.8 1.2 1.2 1.6a2.73 2.73 0 0 0 1.2.9c.5.2 1 .3 1.4.3zm-1.272-4.75c0-.4 0-.7-.2-1.1-.5-.9-1.3-1.6-2.3-1.9-1.4-.6-2.9-1-4.4-1.2-1.9-.1-3.8-.1-5.6 0-1.9.1-3.8.1-5.7-.2-1.5-.3-3-.8-4.3-1.7-.9-.6-1.6-1.3-2.2-2.2-.1-.2-.3-.5-.4-.8 0-.1-.1-.2-.1-.3a10.39 10.39 0 0 0 .6 1c.6.8 1.3 1.6 2.2 2.1 1.3.8 2.7 1.3 4.3 1.6 1.9.3 3.7.3 5.6.2s3.8-.1 5.7 0c1.5.2 3 .6 4.5 1.3a4.29 4.29 0 0 1 2.3 2.1c.1.3.1.6.1.9 0 0 0 .1-.1.2zm3.416-14.802a.9.9 0 0 1 .1.5c0 .5-.1 1-.2 1.4-.7 1.4-1.8 2.6-3.2 3.4s-3 1.2-4.6 1c-.5 0-.9-.1-1.4-.3-.2 0-.3-.1-.5-.2 0-.1.7.1 1.9.2l2.1-.1c.8-.2 1.6-.5 2.3-.9 1.3-.8 2.4-1.9 3.2-3.2.2-.5.3-1.2.3-1.8zm-2.83-3.402v.5c0 .5-.1.9-.3 1.4-.9 3.1-3.2 5.5-6.3 6.4l-1.4.3h-.5c0-.1.7-.1 1.8-.5a10.04 10.04 0 0 0 6.2-6.2c.4-1.2.5-1.9.5-1.9zm-.695 33.384v-1.6c0-1.4-.3-2.8-.8-4.2-.3-.9-.9-1.8-1.5-2.5-.8-.8-1.7-1.5-2.8-1.8-2.2-.8-4.9-.7-7.7-.8-2.6-.1-5.2-.6-7.7-1.5-2-.8-3.8-2-5.2-3.7-.9-1.1-1.6-2.4-2-3.8-.1-.4-.2-.8-.2-1.2v-.4l.3 1.5c.4 1.4 1.1 2.6 2.1 3.7 1.4 1.6 3.2 2.8 5.1 3.6 2.4.9 5 1.4 7.6 1.4 2.7.1 5.5 0 7.8.9a6.97 6.97 0 0 1 2.8 1.9c.7.8 1.2 1.6 1.5 2.6.5 1.4.7 2.8.7 4.3v1.6z" class="U"/><path d="M229.687 150.653l-1.1-1.2c-1.8-1.9-3.9-3.4-6.3-4.4l-1.5-.6c.5.1 1.1.2 1.6.4 2.5.9 4.7 2.4 6.4 4.4.3.4.6.9.9 1.4z" class="T"/><path d="M225.43 164.383c.1-.1 4-2 4.3 2.6s-4.4 3.9-4.4 3.8l.1-6.4z" class="Z"/><path d="M226.633 168.906s.1.1.2.1c.2.1.4.1.6 0a1.84 1.84 0 0 0 .8-1.8c0-.4-.1-.8-.3-1.1a.9.9 0 0 0-.6-.6c-.2 0-.4.1-.5.2s0 .2 0 .2-.1-.1-.1-.3c0-.1.1-.2.2-.3s.3-.2.4-.1a1.27 1.27 0 0 1 .9.7c.2.4.3.8.4 1.3.1.8-.3 1.7-1.1 2.1-.2.1-.5.1-.7-.1s-.3-.3-.2-.3z" class="a"/><g class="Z"><path d="M157.475 205.66s-3.1-6.1-3.9-6.7-7.7-3-8.3-2.8-8.9 1.8-8 2.7 6.8-.2 6.8-.2l.8.4s-5 .9-6.1 1.5c-1 .6-.6 1.8.3 1.7s5.3-1 5.5-.9-4.7 1.3-5.3 1.6c-.7.4-.8 1.7.1 1.7.5 0 5.3-1.3 5.3-1.3-1.4.5-2.8 1.2-4.1 1.8-.6.5-.1 1.4.7 1.2.6-.1 3.2-1.4 3.9-1.6 0 0 .7.2 1.4 1.6s5.3 4.9 5.3 4.9l5.6-5.6z"/><path d="M155.5 205.72c-.6.4-1.4.4-1.9 0-.6-.3-1.1-.9-1.6-1.3-1.7-1.2-4.2-.8-5.8-2.1-.2-.2-.5-.5-.3-.7.1-.2.4-.3.7-.3l6.9.1"/></g><path d="M153.4 201.432c-.3 0-.5-.1-.8-.1-.5 0-1.2-.1-2-.1l-3-.1h-.9c-.4-.1-.7 0-1 .2a.47.47 0 0 0-.1.6.78.78 0 0 0 .4.4c.3.2.6.4.9.5 1.2.4 2.4.7 3.6 1 .5.1 1 .3 1.4.6l1.1.9c.5.5 1.2.7 1.9.7.5-.1.7-.4.7-.4-.2.1-.4.2-.7.2-.7 0-1.3-.2-1.8-.7-.3-.3-.7-.6-1.1-.9-.5-.3-1-.5-1.5-.7l-3.5-1c-.3-.1-.5-.3-.8-.5-.2 0-.3-.2-.2-.3s.4-.1.7-.1h5.9c.3-.1.5-.1.8-.2zm-16.04-2.5c.5.2 1 .4 1.5.4.6.1 1.1.1 1.7 0l2.1-.3 1.6-.3h-.1c1.2.5 2.4.8 3.6 1.1-1.1-.6-2.3-1.1-3.5-1.4h-.1l-1.5.2-2 .3c-.6.1-1.1.1-1.7 0-1 0-1.6-.1-1.6 0z" class="a"/><path d="M181.752 381.175l7.5 13.9s-11.6 12.3-10.5 15l27.6-13.6-10.8-22.1-13.8 6.8z" class="Y"/><path d="M197.207 389.724c.6-.1 1.2.3 1.4.9.1.6-.3 1.2-.9 1.4-.7.1-1.3-.3-1.5-1 0-.6.5-1.2 1.1-1.3" class="S"/><path d="M206.353 396.58l-1.2-2.2-26 13.9s-1 1.1-.4 1.9l27.6-13.6z" class="V X"/><g class="R"><path d="M188.818 395.252c.1.1.8-.1 1.6 0 .9.1 1.5.5 1.6.4s-.5-.8-1.5-.9-1.8.3-1.7.5zm-2.296 2.538c0 .1.7.1 1.5.4.7.3 1.2.9 1.3.8.1 0-.2-.9-1.1-1.3s-1.8 0-1.7.1zm.065 4.264c.1 0 0-.8-.7-1.4s-1.5-.5-1.5-.3c0 .1.6.3 1.2.8s.8 1 1 .9zm.86-10.226c.1.1.6-.4 1.4-.7s1.5-.4 1.5-.5-.8-.3-1.7 0-1.3 1.1-1.2 1.2zM186 388.985c.5-.1 1-.3 1.4-.7.5-.3.9-.7 1.2-1.2.2-.3.4-.5.6-.8.1-.2.2-.3.3-.5.1-.3 0-.6-.3-.7-.2-.1-.5-.1-.7 0s-.3.2-.5.3a1.85 1.85 0 0 0-.8.7c-.4.4-.7.9-.9 1.5-.2.4-.3 1-.3 1.4.2.1.3-.5.7-1.3.2-.5.5-.9.9-1.3.2-.2.4-.4.7-.6s.5-.3.6-.3.1.1 0 .2a.76.76 0 0 1-.2.4l-.5.8c-.3.4-.7.8-1.1 1.2-.7.5-1.2.8-1.1.9z"/><path d="M186.27 389.093c.1-.5 0-1.1-.3-1.5-.4-.8-1-1.6-1.7-2.1-.3-.3-.8-.4-1.2-.3-.2.1-.4.4-.4.7 0 .2 0 .4.1.6.1.3.3.6.5.9.3.5.8.9 1.3 1.1.4.3 1 .4 1.5.3-.5-.2-.9-.4-1.3-.6-.4-.3-.8-.6-1.1-1.1-.2-.3-.3-.5-.4-.8s-.1-.6 0-.6c.3 0 .5 0 .7.2.3.2.5.4.7.6.4.4.7.8.9 1.2.5.9.6 1.4.7 1.4z"/></g><path d="M189.13 393.27l-2.9 15.6s-16.8 2.3-17.6 5.2l30 6.6 5.5-24.1-15-3.3z" class="Y"/><path d="M195.874 409.56c.6.3.8 1 .5 1.6s-1 .8-1.6.5-.8-1.1-.6-1.7c.4-.6 1.1-.7 1.7-.4" class="S"/><path d="M198.73 420.637l.5-2.4-29-5.5s-1.5.3-1.5 1.3l30 6.6z" class="V X"/><g class="R"><path d="M185.874 408.615c0 .1.7.4 1.3 1s.9 1.3 1 1.3.1-.9-.6-1.7-1.7-.8-1.7-.6zm-3.438.54c-.1.1.5.5.9 1.3.4.7.4 1.4.5 1.4.1.1.4-.8 0-1.7s-1.4-1.1-1.4-1zm-2.644 3.433c.1.1.5-.6.3-1.5s-.8-1.4-.9-1.2c-.1 0 .2.5.4 1.3.1.7 0 1.3.2 1.4zm7.126-7.46c0 .1.7.1 1.6.3.8.2 1.4.6 1.5.5s-.4-.8-1.4-1-1.8 0-1.7.2zm.636-3.175c.5.2 1 .4 1.5.3.6 0 1.1 0 1.7-.1l1-.3c.2-.1.4-.1.5-.3.2-.2.3-.5.2-.8-.1-.2-.3-.4-.6-.5-.2 0-.4-.1-.6 0-.3 0-.7 0-1 .1-.6.1-1.1.3-1.6.6-.8.5-1.2 1-1.2 1 .1.1.5-.3 1.3-.7.5-.2 1-.4 1.5-.5.3 0 .6-.1.9-.1s.6 0 .7.2c0 .1 0 .1-.1.2s-.3.1-.4.2l-.9.3c-.5.1-1 .2-1.6.2a4.44 4.44 0 0 1-1.3.2z"/><path d="M187.672 402.188s.5-.4.7-1.4a6.15 6.15 0 0 0 0-2.7 1.59 1.59 0 0 0-.8-1c-.3-.1-.6.1-.7.3s-.2.3-.3.5c-.1.3-.2.7-.2 1 0 .6.1 1.2.3 1.7.4.9 1 1.2 1 1.2l-.7-1.3c-.2-.5-.2-1-.2-1.5 0-.3.1-.6.2-.9s.3-.5.4-.5.4.3.4.6c.1.3.2.6.2.9.1.5 0 1 0 1.6-.1 1-.4 1.5-.3 1.5z"/><path d="M202.94 249.88l-46.1 59.4c-4.4 5.7-5.7 13.3-3.4 20.1l33.4 68.1 11.2-19-19.1-53.8 24.9-30 11.1-45.9-12 1.1z"/><path d="M185.023 406.502l20.6-144.1 1-12.9 25.3-1.4s8.8 13.8 9.3 22.2-23 67.5-23 67.5l-3.4 23.5-14.2 50-15.6-4.8z"/></g><path d="M206.42 252.256c.1 0-4.6 34.6-10.5 77.2l-11 77.1c-.2 0 4.6-34.6 10.5-77.2l11-77.1zm-27.608 72.524c-.1.1-.6-.4-1.5-.9-2.5-1.3-5.4-1.4-8-.3-1 .4-1.5.8-1.6.8.4-.5.9-.8 1.4-1 2.6-1.3 5.8-1.2 8.3.3.5.2 1 .6 1.4 1.1zM233.416 257s-.2.1-.5.3c-.5.3-1.1.4-1.6.6-.8.2-1.7.3-2.6.4-2.1.1-4.2-.4-6.1-1.4-.8-.4-1.5-.9-2.1-1.4-.4-.4-.9-.8-1.2-1.2-.3-.3-.4-.5-.4-.5.1-.1.6.6 1.8 1.5.7.5 1.4.9 2.1 1.3a13.47 13.47 0 0 0 5.9 1.4c.8 0 1.7-.1 2.5-.2l2.2-.8zm-73.904 84.76c-.3-.5-.6-.9-.8-1.4l-2-3.9c-1-2-1.9-4-2.6-6-.5-1.2-.8-2.5-1.1-3.7-.3-1.4-.5-2.7-.6-4.1 0-1.4.1-2.8.4-4.2a22.85 22.85 0 0 1 1.2-3.7c.9-2 2-3.9 3.2-5.7l2.7-3.5c.3-.4.6-.7.8-.9l.3-.3c-.3.5-.6.9-.9 1.3l-2.6 3.6c-1.2 1.8-2.3 3.7-3.1 5.7-.5 1.2-.9 2.4-1.1 3.6-.3 1.3-.4 2.7-.4 4.1.1 1.4.2 2.7.6 4.1.3 1.2.6 2.5 1.1 3.7.8 2.3 1.7 4.3 2.5 6l1.9 4 .5 1.1c-.1-.1 0 0 0 .2z" class="U"/><g class="T"><path d="M197.428 196.6l-17.1 19.7-22.2-12.3-7.8 7.8 28.8 19.7 12.9-.2 11-21.6-5.6-13.1z"/><path d="M191.233 211.083l9.5 40.1 31.9-2.7 4.1-31.6 8.6-13.4c-1.5-7.6-8.4-13.1-16.2-12.8l-2.3-5.3-16.8 1.4-2 4.9s-13.9 1-13.5 13.6l-3.3 5.8z"/></g><path d="M199.272 245.202c4.9 1.3 10.2.3 14.3-2.7.5-.5 1.2-.9 1.9-1.1.8-.1 1.6 0 2.3.3 3.4 1.1 7 1.7 10.6 1.9 1.2.1 2.5 0 3.7-.5s1.9-1.7 1.7-3c-5.4-2-11-3.5-16.6-4.5-2.9-.7-5.9-.8-8.9-.2-3 .7-5.6 2.4-8.2 4.1-.7.4-1.3 1-1.6 1.7-.5 1.5 1 3 .7 4.5" opacity=".3"/><path d="M223.23 203c.9.8 12.8 21.2 12.8 21.2l-19 4.1-.6 9.4 18.7 2.7 8.4.9c3.8.4 7.4-1.2 9.7-4.2a10.54 10.54 0 0 0 1.3-10.8l-9.7-24.7-21.6 1.4z" class="T"/><g class="R"><path d="M241.276 224.088c0 .1-5.4 1.2-12.1 2.3l-12.2 1.9c-.1-.1 5.4-1.2 12.1-2.3l12.2-1.9z"/><path d="M236.724 224.83a4.67 4.67 0 0 1-.5-1l-1.2-2.8-3.9-9.4-2.1-5.2c-.6-1.4-.9-3-.8-4.5.1-1.1.6-2.1 1.4-2.8.2-.2.4-.4.7-.5.2-.1.3-.1.3-.1s-.4.2-.8.7c-.7.8-1.1 1.7-1.2 2.7-.1 1.5.3 3 .9 4.4l2.1 5.2 3.8 9.5 1.1 2.9c0 .2.2.5.2.9zm9.806 16.538c-.4.1-.8.1-1.2 0-.8 0-1.9 0-3.3-.1-2.7-.1-6.5-.5-10.7-1.1s-7.9-1.2-10.6-1.7l-3.2-.6c-.4-.1-.8-.1-1.2-.3.4 0 .8 0 1.2.1.8.1 1.9.2 3.2.4l10.6 1.6c4.1.6 7.9 1 10.6 1.2l3.2.2c.6.1 1 .2 1.4.3zm-49.596-12.648c0-1.2-.2-2.3-.5-3.4-.3-1-.8-2.2-1.1-3.6-.2-.7-.3-1.5-.2-2.3s.2-1.6.5-2.4c1.1-2.6 2.4-5.1 4-7.4l1.4-2.1c.1-.3.3-.5.5-.8-.1.3-.2.6-.4.9l-1.3 2.2c-1.5 2.3-2.8 4.8-3.9 7.4-.3.7-.4 1.5-.5 2.3 0 .7 0 1.4.2 2.1.3 1.4.8 2.6 1 3.6a10.68 10.68 0 0 1 .3 2.5c0 .2 0 .5-.1.7.2.2.2.3.1.3zm15.7-36.327c-.2-1.9-.1-3.9.3-5.8.2 1.9.1 3.9-.3 5.8zm6.205-.55c-.6-1.8-.9-3.8-.9-5.7.6 1.8.9 3.7.9 5.7zm5.452-1.037c-.8-1.5-1.2-3.1-1.4-4.7.7 1.4 1.2 3 1.4 4.7z"/></g><path d="M228.78 205.772c.1 6.1 1.2 11.2 1.3 17.3 0 .6.1 1.2.3 1.7.7 1.3 2.2.9 3.7.8.8-.1 1.5-.3 2.3-.5.1-.5 0-.9-.2-1.4l-7.4-17.9" opacity=".3"/><path d="M161.304 217.836l9.2 8.9 14.8 14.3 25.5-1.3-20.7-23.3-28.8 1.4z" class="R"/><path d="M165.31 217.648s-6.7 2.9.1 8.1 16.1 7 17.5 10.7c.9 2.1.5 4.5-.9 6.3l19.5-.9s5.8-5 1.5-9.5-15.7-10.9-17-12.7 1.8-3.1 1.8-3.1l-22.5 1.1z" class="S"/><path d="M171.45 217.273l-.8-.9 10.5-.7v1.2l-9.7.4z" class="U"/><path d="M184.306 220.275c-.9.2-1.7.4-2.6.4l-6.4.5-6.4.2c-.9 0-1.8 0-2.6-.2.9-.1 1.8-.1 2.6-.1l6.4-.3 6.3-.4c.9-.1 1.8-.1 2.7-.1zm2.116 2.922c-2.8.4-5.7.6-8.5.6l-8.6.2c2.8-.4 5.7-.6 8.5-.6l8.6-.2zm4.448 2.473c-.8.2-1.6.4-2.4.4l-6 .6-6 .3c-.8.1-1.7 0-2.5-.1.8-.2 1.6-.3 2.5-.3l6-.4 6-.5h2.4zm3.088 3.324c-2.4.4-4.9.7-7.3.8-2.4.3-4.9.4-7.3.4 2.4-.4 4.9-.7 7.3-.8 2.4-.3 4.9-.4 7.3-.4zm4.56 3.013c-2.3.5-4.7.8-7.1 1-2.4.3-4.7.5-7.1.5 2.3-.5 4.7-.8 7.1-1 2.4-.3 4.8-.5 7.1-.5zm2.158 4.24c-.7.2-1.4.3-2.1.4-1.3.2-3.1.3-5.1.4l-5.2.1c-.7 0-1.4 0-2.1-.1l2.1-.2 5.1-.2 5.2-.3c.7-.1 1.4-.1 2.1-.1z" class="c"/><path d="M216.43 237.458l-4.8-.8-18 .4s-.9-.3-.1-.8c.4-.3 7-1.9 7-1.9l-9.5.8c.9-1.7 2.1-3.2 3.6-4.3 2.3-1.6 6.8-2.6 6.8-2.6l-2.9-2.2s9.4-1.2 10.6-.2 2.7 2.7 2.7 2.7h5.2" class="Z"/><path d="M203.712 233.97c0 .1-2.8.2-6.3.6l-6.3.6c.6-.2 1.2-.4 1.8-.5l4.5-.6 4.5-.2c.6-.1 1.2 0 1.8.1zm-.484-2.363c-1.8.5-3.6.8-5.4 1-1.8.3-3.6.5-5.5.5 3.5-.8 7.2-1.3 10.9-1.5z" class="a"/><path d="M114.91 181.864l-.8 2.7h12.9l-.7-1.8-11.4-.9z" class="U"/><g class="R"><path d="M127.395 190.342l-.2-.2h-13.3l-.2.2h13.7z"/><path d="M125.2 205.11l2.7-20.2h-14.7l2.7 20.2s5.6.8 9.3 0z"/></g><path d="M128.126 185.17h-15.1v-.2c0-.7.5-1.2 1.2-1.2h12.7c.7 0 1.2.5 1.2 1.2v.2z" class="U"/><path d="M126.395 198.217h-11.7l-1.1-7.9h13.8l-1 7.9z" class="S"/><g class="R"><use xlink:href="#F"/><path d="M114.683 182.42l2.5.4v.5h-2.8l.3-.9z"/></g><g class="W"><path d="M119.18 195.748s-21.7 21.8-23.6 22.4c0 0-6.6-12.8-7.2-13.3l-12.6 7.1 7.5 15.9c2.3 6.1 9.1 9.2 15.2 6.8 1.9-.7 3.5-1.9 4.8-3.4l21.3-25.1 4.3-4.8c.9-1.3 1.4-2.8 1.7-4.3.1-1 .1-2-.2-2.9.3-.7.2-1.5-.1-2.2-.3-.4-.7-.7-1.2-.8.9-2.3-1.6-3.5-2.9-1.6"/><path d="M118.374 196.52c-.3-1.1-1-2-2-2.7-.9-.7-1.9-1.1-3-1.2 0 0 .3-1.6 2.8-1.2s3.3 2 6.4 1.2l.7 3-4.9.9z"/></g><path d="M129.297 190.783c.1.1-.3 1-1.1 1.8s-1.8 1.3-1.8 1.1.7-.7 1.5-1.5 1.3-1.5 1.4-1.4zm.985 3.347c.1.1-.1.7-.6 1.3s-1.1.9-1.2.8.4-.6.9-1.1.8-1.1.9-1zM93.766 226.8c-.2-3.2.4-6.3 1.6-9.2.1 0-.4 2.1-.9 4.6l-.7 4.6z" class="d"/><path d="M16.012 183.387l-.8 2.7h12.9l-.7-1.8-11.4-.9z" class="U"/><g class="R"><path d="M28.497 191.865l-.2-.2h-13.3l-.2.2h13.7z"/><path d="M26.303 206.632l2.7-20.2h-14.7l2.7 20.2s5.6.8 9.3 0z"/></g><path d="M29.23 186.694h-15.1v-.2c0-.7.5-1.2 1.2-1.2h12.7c.7 0 1.2.5 1.2 1.2v.2z" class="U"/><path d="M27.497 199.74h-11.7l-1.1-7.9h13.8l-1 7.9z" class="S"/><g class="R"><use xlink:href="#F" x="-98.898" y="1.522"/><path d="M15.786 183.944l2.5.4v.5h-2.8l.3-.9z"/></g><g class="W"><path d="M15.97 236.796s-2.6-3-1.9-24.7l-.2-11.6 10.1-3 7 39.1-15 .2z"/><path d="M23.673 198.22c.4-1.2 1.2-2.3 2.2-3 .9-.7 1.9-1.1 3-1.2 0 0-.3-1.6-2.8-1.2s-3.3 2-6.4 1.2l-3.7 6.6 7.7-2.4z"/><path d="M20.3 194.53c-.2-.4-5.4-4.6-5.4-4.6s-2.7.1-1.7 2.5c-1.1.5-1.7 1.7-1.2 2.9.1.1.1.3.2.4 0 0-1.2.9-.3 3.2.6 1.6 1.3 3.1 2.3 4.5l6.1-8.9zm1.438 23.093l-5.9 14c-1.3 4.2 1 8.6 5.1 10 4.1 1.3 8.6-.9 10-5l4.7-13.9-13.9-5.1z"/></g><g class="d"><path d="M16.424 230.49c.1-.7.2-1.3.5-1.9l1.6-4.5 2-4.4c.3-.6.6-1.2 1-1.7-.2.6-.4 1.3-.7 1.9l-1.8 4.4-1.7 4.5c-.3.5-.6 1.1-.9 1.7z"/><path d="M20.514 220.07c0 .1-1 .3-2 1s-1.5 1.6-1.6 1.5c-.1 0 .2-1.1 1.4-1.9.6-.6 1.4-.8 2.2-.6z"/></g><g class="R"><path d="M45.395 145.217c.6 1.7-1.4 3.1-3.1 3.5s-3.8.6-4.6 2.2c-.7 1.4 0 3.1-.6 4.5-1.2 2.7-6 2.1-7 4.9-.7 2 1.1 4 .9 6-.2 1.7-1.8 2.9-3.2 3.9s-2.8 2.5-2.6 4.2c.3 2 2.7 3.4 2.5 5.4s-2.9 2.9-3.2 4.8c-.5 2.3 2.4 3.8 3.4 5.9.7 1.6.3 3.8 1.5 5.1 1.2 1.4 3.4 1.1 5.2.7l17.9-3.8c-1.2-2.8-.1-6.1 1.7-8.7s4-4.7 5.5-7.4 2-6.3 0-8.7m17.163-8.25a12.66 12.66 0 0 0-.6-2.8c-.1-.4-.4-.8-.7-1.2-.4-.3-.8-.1-1.1.4-1.1 2.3-1.1 4.9 0 7.3.3.5.8.7 1.1.4s.6-.7.7-1.2c.3-1 .5-1.9.6-2.9.1.3.1.5.1.8 0 .7-.1 1.4-.3 2.1-.1.5-.4 1-.8 1.3-.3.2-.6.3-1 .2-.3-.1-.6-.4-.8-.6-1.2-2.4-1.2-5.3 0-7.7.2-.3.4-.5.8-.6.3-.1.7 0 1 .2.4.4.6.8.8 1.3.2.7.3 1.4.3 2.1 0 .4 0 .7-.1.9z"/><path d="M47.733 176.028c-3.2-5.5-4.2-12.8-5-19.1-.4-3-1.1-7.2 1-9 2.2-2 2.4-5.1 5-6.6 2.6-1.6 5.9-1.6 8.5.1"/></g><path d="M56.646 195.355c4.8.4 9.1-3.2 9.4-8.1v-.3l.4-9.6s7.2-.7 7.8-7.8.4-23.7.4-23.7c-8.1-4.1-17.7-3.5-25.2 1.5l.4 25.2v13.6c-.1 4.6 2.3 8.8 6.8 9.2z" class="W"/><path d="M67.21 160.758c-1.1-1.6-3.2-2.1-4.9-1.1-1.7 1.2-2.3 3.4-1.4 5.2.7 1.3 2 2.3 3.5 2.7 1.4.3 2.3 1.6 2.1 3-.2 1.8-3.2 2.5-4.6 3.9-2.1 2.3-6.7 3.3-9.8 3.6-3.1.4-2.7.4-4.5-2.1-1.2-1.7-1.8-3.7-1.7-5.8l-.3-15.8c-.1-1.9 0-3.8.4-5.7s1.5-3.6 3-4.7c1.7-1.1 4-1.2 5.9-1.9 2.5-.8 4.6-2.4 6.9-3.6s5.2-1.9 7.5-.7c1.7.8 2.8 2.5 4.4 3.4 2.3 1.3 5.5 1 6.6 4.4.4 1.2.4 2.5 0 3.6-1.6 4.6-7.3 6.5-11.5 4.5-.1.8.7 2.5-.2 5-.1.9-.2 2.1-1.4 2.1" class="R"/><path d="M65.86 165.28s0 .1-.1.3c-.2.2-.5.4-.8.4-1-.1-1.9-.9-1.9-2 0-.6.2-1.1.5-1.5.3-.3.7-.5 1.1-.6.7-.2 1.2.1 1.1.2 0 .1-.4 0-1 .2-.8.2-1.3 1-1.2 1.8 0 .8.6 1.5 1.3 1.6.7-.1 1-.5 1-.4z" class="d"/><path d="M76.92 159.145c-1.6.5-3.2.8-4.8 1-1.6.3-3.3.5-4.9.6 1.6-.5 3.2-.8 4.8-1 1.6-.4 3.2-.5 4.9-.6zM48.262 182.96a2.1 2.1 0 0 0 2.5 1 5.65 5.65 0 0 0 2.4-1.6c.7-.7 1.5-1.3 2.4-1.7 1.9-.6 4.2.7 5.9-.5 1.5-1.1 1.3-3.5 2.7-4.6.8-.6 1.8-.7 2.6-1.2 1.5-1.1 1.2-3.5 0-4.8s-3.1-1.9-4.8-2.4l-15.4 6.6 1.7 9.2z" class="R"/><path d="M66.518 155.165l-.1.1a.76.76 0 0 1-.4.2c-.5.3-1.1.5-1.7.6-.9.2-1.9.4-2.8.4-1.2.1-2.5.3-3.7.5-1.5.3-2.8 1-3.8 2.1-1 1.2-1.4 2.9-2.2 4.6-.4.9-1 1.7-1.8 2.3s-1.7 1-2.7 1.3c-1.9.6-4 1-5.5 2.4-.8.6-1.3 1.5-1.4 2.5s-.1 2 0 3a5.07 5.07 0 0 1-2.7 5c-1.6.9-3.3 1.4-4.6 2.3-.7.4-1.2.9-1.7 1.5-.4.6-.6 1.3-.6 2a14.22 14.22 0 0 0 .5 3.6 13.33 13.33 0 0 1 .3 2.8c0 .6-.2 1.2-.5 1.7-.1.2-.2.3-.4.5.4-.7.7-1.4.7-2.2a13.33 13.33 0 0 0-.3-2.8c-.4-1.2-.6-2.5-.6-3.7 0-.8.3-1.5.7-2.1.5-.7 1.1-1.2 1.7-1.7 1.4-.9 3.1-1.4 4.6-2.3 1.7-.9 2.7-2.7 2.4-4.6-.1-1-.1-2 0-3.1.2-1.1.7-2.1 1.6-2.8 1.7-1.4 3.9-1.8 5.7-2.4.9-.3 1.8-.7 2.6-1.2.7-.6 1.3-1.3 1.7-2.1.8-1.6 1.2-3.4 2.3-4.7 1.1-1.1 2.5-1.9 4-2.1 1.2-.2 2.5-.4 3.7-.4l2.8-.4c.8-.2 1.5-.5 2.2-.8zm-4.145 2.517c0 .1-.6 0-1.5.2-1.3.3-2.5 1-3.5 2.1-.6.7-1.1 1.5-1.4 2.4-.3 1.1-.3 2.1-.3 3.2.1 1.2-.1 2.5-.5 3.7-.3.6-.8 1.1-1.3 1.5-.6.4-1.2.7-1.8.9-.6.3-1.1.6-1.5 1.1s-.6 1-.6 1.6c-.1 1.2.2 2.5-.4 3.7-.6 1-1.4 1.8-2.4 2.4l-2.5 1.4a6.55 6.55 0 0 0-1.8 1.5c-.4.5-.6 1-.8 1.6-.1.5-.1 1 0 1.5-.1-.1-.1-.2-.2-.4-.1-.4-.1-.8 0-1.2.1-.6.4-1.2.7-1.7.5-.6 1.1-1.2 1.8-1.6l2.5-1.4a5.81 5.81 0 0 0 2.2-2.2c.5-1 .3-2.2.3-3.5 0-.7.3-1.4.7-1.9.5-.5 1-.9 1.7-1.2 1.2-.6 2.4-1.1 2.9-2.2.4-1.1.6-2.3.5-3.5-.1-1.1.1-2.2.3-3.3.3-.9.8-1.8 1.5-2.5 1-1 2.3-1.7 3.7-2 .4-.1.8-.1 1.1-.1.4-.1.5-.1.6-.1z" class="U"/><path d="M37.762 247.392l5-14.5-3.5-17.5-2.7 7.8-16.8-6.2 11.4-22.8c5-10.4 18.2-10.4 18.2-10.4l16.9.3c5.4-.3 10.7 1.7 14.4 5.6 4.9 4.9 15.8 26.1 15.8 26.1l-17.7 5.5-3.5-6.5 1 13.8 3.5 21.1-42-2.3z" class="S"/><path d="M80.048 189.107c0 .1-10.2.2-22.8.2s-22.8-.1-22.8-.2 10.2-.2 22.8-.2l22.8.2z" class="T"/><path d="M72.892 188.62c0 .1-.5.1-1.2.4-1.1.5-2 1.3-2.6 2.3-.9 1.5-1.3 3.2-1 5 .3 2.1 1 4.2 2 6.1 2 4.2 3.7 8 4.9 10.8l1.4 3.3c.2.4.4.8.5 1.2-.3-.4-.5-.7-.6-1.1-.4-.8-.9-1.9-1.6-3.2l-5.1-10.7c-1-2-1.7-4.1-2-6.2-.2-1.8.2-3.7 1.2-5.2.7-1 1.6-1.8 2.8-2.3.3-.1.6-.2 1-.2.2-.2.3-.2.3-.2zm-29.935 45.065c-.1 0-2.2-9.1-4.5-20.4l-4-20.5c.1-.1 2.2 9.1 4.5 20.4l4 20.5zM68.2 220.052c.1.4 0 .8 0 1.2-.1 1.1-.4 2.2-.8 3.2-1.4 3.4-4.1 6.2-7.4 7.9-3.3 1.6-7 2.3-10.6 2.1-1.1 0-2.2-.2-3.3-.3-.4 0-.8-.1-1.2-.3 0-.1 1.7.2 4.5.2 3.6.1 7.1-.7 10.4-2.2 3.2-1.6 5.8-4.3 7.3-7.5.5-1.4.9-2.8 1.1-4.3z" class="R"/><path d="M85.796 196.66c0 .1-12.5.2-27.9.2s-27.9-.1-27.9-.2 12.5-.2 27.9-.2l27.9.2zm4.08 7.024c0 .1-14.1.2-31.6.2s-31.5 0-31.5-.2 14.1-.2 31.6-.2l31.5.2zm2.783 6.436c0 .1-15.5.2-34.7.2s-34.6 0-34.6-.2 15.5-.2 34.7-.2l34.6.2zm-54.584 7.918l-2.4-.7-5.8-1.7c-2.3-.7-4.3-1-5.8-1.4-.8-.1-1.6-.4-2.4-.6a10.68 10.68 0 0 1 2.5.3l5.9 1.3 5.8 1.8c.7.2 1.5.6 2.2 1zm37.654-1.168c-.5.1-1 .1-1.4 0h-3.9l-12.9-.1h-16.8c-.5 0-1 0-1.4-.1.4-.1.9-.1 1.4-.1.9-.1 2.3-.1 3.9-.1 3.3-.1 7.8-.2 12.9-.1s9.5 0 12.8.2c1.6.1 3 .1 3.9.2.5 0 1 0 1.5.1zm19.64-3.185c0-.1.1 0 0 0l-.6.1-2 .4-6.6 1.1-6.7 1a12.65 12.65 0 0 1-2.8.3c.9-.3 1.8-.5 2.7-.6l6.6-1.1 6.7-.9 2-.2c.3-.2.5-.2.7-.1 0-.1 0-.1 0 0 0 0 0-.1 0 0zm-27.95 9.387c0 .1-5.9.2-13.3.2s-13.2 0-13.2-.2 5.9-.2 13.3-.2 13.2.1 13.2.2zm8.564 2.146c-1.5.2-3 .3-4.5.2-1.5.1-3 0-4.5-.2 1.5-.2 3-.3 4.5-.2 1.5-.1 3 0 4.5.2zM61.587 230.9c-.9.2-1.9.2-2.8.2-1.7.1-4.1.1-6.8 0l-6.7-.3a13.33 13.33 0 0 1-2.8-.3c.9-.1 1.9-.1 2.8 0l6.7.2 6.7.1c1.1-.1 2 0 2.9.1zm15.173 1.856l-9.1.2c-3 .1-6.1 0-9.1-.2l9.1-.2c3-.1 6 0 9.1.2zm1.36 6.62c-.5.1-1 .1-1.5.1h-4c-3.4 0-8-.1-13.2-.3l-13.1-.6a100.71 100.71 0 0 1-4-.3c-.5 0-1-.1-1.5-.2h1.5l4 .1 26.4.8 4 .2c.4.1.9.1 1.4.2zm1.22 7.506h-1.6l-4.3-.2-14.3-.7-14.3-.9-4.3-.3c-.5 0-1.1-.1-1.6-.2h1.6l4.3.2 14.3.7 14.3.9 4.3.3c.5 0 1.1.1 1.6.2z" class="T"/><path d="M44.182 232.617c3.2 2.4 7.8 1.6 11.7.9 3.9-.6 7.6-2.5 10.2-5.5 1.2-1.3 1.9-3 1.9-4.8-.2-1.8-1.7-3.5-3.5-3.3-2 .2-3 2.5-4 4.3-3.3 5.7-9.8 8.8-16.3 7.7.1-.1-.6.3 0 .7zm24.08-34.3c1 7.9 2.3 14.5 3.9 22.3.8 3.9 1.8 7.9 4.5 10.8l-1.5-17.6-6.9-15.5z" opacity=".2"/><path d="M45.705 181.727c-2.9 1.1-4.4 4.5-3.3 7.4l.6 1.1c.4.4.7 1 .7 1.6-.1 1.4-2.4 1.5-3.1 2.7-.4.9-.1 1.9.6 2.6.7.6 1.5 1.1 2.4 1.6.8.5 1.4 1.3 1.4 2.3.8 0 1.3-1 1.1-1.8s-.5-1.5-1-2.2c-.4-.7-.5-1.6-.1-2.3.5-.7 1.6-.8 2.4-1.1 1.7-.7 2.5-2.7 1.8-4.4-.5-1.1-1.7-2.3-1.1-3.4.3-.6 1.1-.9 1.7-1.2 2.1-1.2 2.9-3.8 1.7-6-.3-.5-.7-1-1.1-1.3" class="R"/><path d="M29.392 317.697l-5 92.4 15.2 3.7 11.4-94.1-21.6-2z" class="W"/><path d="M24.045 409.72l-2.6 11.4h17.5l.8-7.4-15.7-4z" class="T"/><g class="R"><path d="M39.32 419.5c-.8.1-1.7.2-2.6.1-1.6 0-3.8 0-6.2-.1l-6.2-.3c-.9 0-1.7-.1-2.5-.2.8-.1 1.7-.2 2.6-.1l6.2.1 6.1.3c.9 0 1.7 0 2.6.2z"/><path d="M31.91 411.943c.2 2.5 0 4.9-.5 7.4-.2-2.5 0-5 .5-7.4z"/></g><path d="M21.445 421.14h17.5l.2-1.7-17.4-.4-.3 1.9" class="V X"/><path d="M84.596 388.47l3.7 27.9 13.5-.9-2.8-25.5-14.4-1.5z" class="W"/><path d="M101.888 412.373s15.1 5.1 15.4 7.9l-29 .8-.2-7.6 1.1.2c4.2.9 8.7.4 12.7-1.3z" class="T"/><path d="M91.468 414.8c-.6.2-.9.8-.8 1.4.2.6.8.9 1.4.8.6-.2 1-.8.8-1.5-.2-.6-.9-.9-1.5-.7m-3.02 6.26v-2.3l27.7.1s1.3.5 1.2 1.4l-28.9.8z" class="X V"/><g class="R"><path d="M102.388 412.193c0 .1-.7.2-1.4.7s-1 1.1-1.2 1c-.1 0 .1-.9.9-1.4s1.7-.4 1.7-.3zm3.002 1.133c0 .1-.6.4-1 1-.5.6-.6 1.2-.7 1.2s-.3-.8.3-1.5 1.4-.8 1.4-.7z"/><path d="M107.202 416.994c-.1 0-.3-.7 0-1.5s1-1.1 1.1-1-.3.5-.6 1.2c-.3.6-.3 1.2-.5 1.3zM102 412.1c-.5.1-1 .2-1.5 0-.5-.1-1-.2-1.5-.4-.3-.1-.6-.3-.8-.4a1.38 1.38 0 0 1-.4-.3c-.2-.2-.2-.5-.1-.8.1-.2.3-.3.6-.3.2 0 .4 0 .5.1l.9.3c.5.2 1 .5 1.4.8.7.6.9 1.1.9 1.2-.1 0-.4-.4-1.1-.9-.4-.3-.8-.5-1.3-.7-.3-.1-.6-.2-.8-.2-.3-.1-.6-.1-.6.1v.2c.1.1.2.2.3.2.3.2.5.3.8.4.5.2.9.4 1.4.5.4 0 .9.1 1.3.2z"/><path d="M101.85 412.3c-.3-.4-.4-.9-.4-1.4-.1-.9.1-1.7.5-2.5.1-.3.5-.6.9-.7.3 0 .5.1.6.4.1.2.1.3.2.5.1.3.1.7 0 1-.1.5-.3 1.1-.6 1.5-.5.8-1.1 1-1.1.9s.4-.4.8-1.1c.2-.4.4-.9.4-1.4 0-.3 0-.6-.1-.8-.1-.3-.2-.6-.3-.5-.1 0-.4.2-.5.5l-.3.8c-.1.5-.2 1-.2 1.5 0 .8.2 1.3.1 1.3z"/></g><path d="M37.79 247.43s-10.7 17.9-10.7 28.5l-2.6 130.1 18.5 2.7 12.8-127.1 30.6 128.8c1 0 16.4-2.8 16.4-2.8l-23.3-159.6-41.7-.6z" class="Y"/><g class="R"><path d="M67.63 284.504c0 .1-5.7-1.1-12.6-2.8s-12.5-3.2-12.4-3.3 5.7 1.1 12.6 2.8 12.4 3.2 12.4 3.3z"/><path d="M44.592 279.47v.3l-.1 1c-.1.9-.3 2.1-.6 3.7l-2.1 13.5c-1.7 11.3-3.9 27.1-5.7 44.6s-2.9 33.4-3.5 44.9l-.7 13.6-.2 3.7-.1 1v.3-1.3c0-.9 0-2.1.1-3.7l.5-13.7c.5-11.5 1.6-27.4 3.4-45s4-33.3 5.8-44.7l2.3-13.5.7-3.7c.1-.4.1-.7.2-.9 0 .1 0 0 0-.1zm26.826 2.153c.1 0 5.3 28.5 11.5 63.8l11.1 63.9c-.1.1-5.4-28.6-11.6-63.9l-11-63.8z"/></g><path d="M25.464 174.022c.3.2.5.5.7.8.6.7 1 1.6 1.3 2.4a6.28 6.28 0 0 1 .3 1.9c0 .8-.3 1.5-.7 2.1-.4.7-1 1.3-1.5 1.9s-.9 1.4-.9 2.2.2 1.6.7 2.3c.4.7.9 1.3 1.4 2 .5.6.8 1.2 1.1 1.9.2.6.4 1.3.4 1.9 0 .5 0 1 .1 1.5.1.4.3.7.5 1 .2.2.5.4.9.4 0 0-.4.1-1-.3-.3-.3-.5-.6-.7-1-.1-.5-.2-1.1-.2-1.6 0-.6-.1-1.2-.4-1.8s-.7-1.3-1.1-1.8a14.29 14.29 0 0 1-1.4-2c-.5-.8-.7-1.7-.8-2.6.1-.9.4-1.8 1-2.5l1.5-1.9c.8-1.1.9-2.5.5-3.7-.3-.9-.7-1.7-1.2-2.4-.2-.1-.4-.4-.5-.7z" class="U"/><g class="R"><path d="M534.467 377.548h51.7v7.1h-51.7z"/><path d="M586.18 384.76h-51.8v-7.3h51.9v7.3zm-51.7-.2h51.5v-6.9h-51.5v6.9z"/><path d="M539.262 382.288l7.4 36.7h27.5l7.2-34.4-42.1-2.3z"/><path d="M539.262 415.533l4 5.5h33.4l4.7-5.5h-42.1zm19.098-32.158c-.1 0-.2-17-.3-38l.1-38c.1 0 .2 17 .3 38l-.1 38zm11.477-42.575c0 .1-.1.3-.1.4l-.5 1.1-.3.8-.3 1-.4 1.1c-.1.4-.2.8-.4 1.3-.6 2.1-1.1 4.2-1.4 6.3-.4 2.6-.7 5.3-.8 7.9-.2 4.8-.1 9.7.4 14.5.2 1.8.3 3.3.5 4.4.1.5.1.9.1 1.2v.4c0-.1-.1-.3-.1-.4-.1-.3-.1-.7-.2-1.2-.2-1-.4-2.5-.6-4.4-.5-4.8-.7-9.7-.5-14.5.1-2.7.4-5.3.8-8 .4-2.1.9-4.3 1.5-6.4.1-.4.3-.9.4-1.3s.3-.8.4-1.1l.4-1c.1-.3.3-.5.4-.8l.5-1.1c.1 0 .1-.1.2-.2zm-1.275-13.768c0 .2-.1.4-.2.6l-.5 1.5c-.1.3-.3.7-.4 1.1l-.4 1.4-1 3.4c-.2.6-.3 1.3-.5 2l-.5 2.1c-.4 1.5-.6 3.1-1 4.8-.6 3.4-1.1 7.1-1.4 11.1-.3 3.9-.5 7.7-.5 11.1s0 6.5.2 9.1c0 1.3.1 2.5.2 3.5s.1 1.9.2 2.6l.1 1.7v.6c0-.2-.1-.4-.1-.6 0-.4-.1-1-.2-1.7s-.2-1.6-.3-2.6-.2-2.2-.2-3.5c-.2-2.6-.2-5.7-.3-9.1 0-3.4.2-7.2.5-11.2s.9-7.7 1.5-11.1c.3-1.7.6-3.3 1-4.8l.5-2.2.5-2c.3-1.3.7-2.4 1-3.4.2-.5.3-.9.4-1.4.2-.4.3-.8.4-1.1l.7-1.4c.1-.2.2-.3.3-.5zm-13.505 59.343v-.8c0-.5-.1-1.3-.2-2.3l-.5-8.3c-.5-7-1.1-16.7-2.3-27.3-.6-5.3-1.3-10.4-2-14.9l-1.1-6.5-1.1-5.6c-.3-1.7-.7-3.3-1-4.6l-.8-3.5-.5-2.2-.1-.6v-.2c0 .1.1.1.1.2l.2.6a19.37 19.37 0 0 0 .6 2.2c.3.9.6 2.1.9 3.5s.7 2.9 1.1 4.6a173.69 173.69 0 0 1 1.2 5.6l1.2 6.5c.7 4.6 1.5 9.6 2.1 14.9 1.2 10.6 1.8 20.3 2.2 27.3l.4 8.3c0 1 .1 1.7.1 2.3v.6c-.5 0-.5.1-.5.2z"/></g><path d="M557.894 315.5c-.2-2.4-2.7-4.2-5.1-4.3-2.5.1-4.7 1.3-6.2 3.3-1.4 2-2.4 4.2-3 6.6-1.8 5.7-2.4 11.6-1.8 17.5s3.2 11.5 7.3 15.8c.6.8 1.5 1.2 2.5 1.1.5-.2 1-.4 1.3-.8 8.3-7.6 13-18.5 12.7-29.8.1-2.2-.5-4.5-1.6-6.4-1.1-1.7-4-3.7-6.1-3m-18.09-19.27l-3.4 6.2c-.1.1-.2.3-.3.3-.2 0-.3-.2-.4-.3l-9-13.8 2.1-1.2 11 8.8z" class="T"/><path d="M539.805 296.23l-3.4 6.2c-.1.1-.2.3-.3.3-.2 0-.3-.2-.4-.3l-9-13.8 2.1-1.2 11 8.8z" opacity=".2"/><path d="M558.15 307.344l-30.8-18.1c-.3-.1-.6-.4-.7-.8-.1-.5.2-.9.5-1.2 4.3-4.4 10.3-6.8 16.4-6.5 6.2.4 11.7 3.9 14.9 9.2 3 5.4 3.1 12.4-.3 17.4" class="T"/><g class="R"><path d="M531.854 283.432c.1 0 .3-.1.4 0 .3 0 .7-.1 1.2-.1a31.08 31.08 0 0 1 4.3.3c9.6 1.6 17.3 8.6 19.9 18 .4 1.4.6 2.8.8 4.2.1.5 0 .9.1 1.2v.4s-.1-.6-.2-1.6c-.2-1.4-.5-2.8-.9-4.2-2.6-9.2-10.3-16.1-19.7-17.8-1.5-.2-3-.3-4.4-.4h-1.5zm22.083 11.414c-.5.3-1 .5-1.6.7l-3.9 1.4-4 1.1c-.5.2-1.1.3-1.7.3l1.6-.6 3.9-1.2 4.1-1.2c.5-.3 1.1-.4 1.6-.5z"/><path d="M549.103 281.85c.4 2.3.5 4.6.2 6.9-.2-2.3-.2-4.6-.2-6.9zm-21.948 7.052c.7-.3 1.5-.6 2.2-.8l5.5-1.5 5.6-1.2c.8-.2 1.6-.3 2.3-.3l-2.3.6-5.6 1.3-5.5 1.4c-.7.2-1.5.3-2.2.5z"/></g><path d="M543.994 309.858c-2.6-2-5.4-2.4-8.8-2.3-3.3.2-6.6 1.1-9.6 2.5-5.2 2.3-10.1 5.6-13.2 10.4s-4.2 11-1.9 16.2a3.25 3.25 0 0 0 1 1.3c.6.2 1.2.1 1.7-.1 5.9-1.9 11.8-3.9 17.3-6.9s10.5-7.3 13.4-12.8c.8-1.3 1.2-2.7 1.4-4.2s-.3-3-1.3-4.1" class="T"/><g class="R"><path d="M544.03 309.225c-.2.1-.3.1-.5.2l-2.1.7c-.3.1-.7.3-1 .4l-2.5 1-1.4.7c-.5.2-1 .5-1.5.8-1.1.5-2.2 1.2-3.3 1.9-4.9 3.1-9.3 6.9-13 11.4-.8 1.1-1.6 2-2.3 3-.3.5-.7 1-1 1.4l-.8 1.4c-.6.8-1 1.7-1.4 2.4-.2.4-.4.7-.5 1l-.5.8c-.2.5-.4.9-.6 1.2-.1.1-.1.3-.2.4a.76.76 0 0 1 .2-.4l.5-1.2c.1-.3.2-.6.4-.9.1-.3.3-.6.5-1 .4-.7.8-1.5 1.3-2.4l.8-1.4c.3-.5.6-.9 1-1.4.7-1 1.4-2 2.3-3.1 3.7-4.6 8.1-8.5 13.1-11.5l3.3-1.9c.5-.3 1-.5 1.5-.8l1.5-.6c.9-.4 1.8-.7 2.6-1 .4-.1.7-.3 1.1-.4l.9-.3 1.1-.3c.2-.1.3-.1.5-.1zm-20.7 11.178c-4.3 1.5-8.6 2.8-13 3.8 4.3-1.5 8.6-2.8 13-3.8z"/><path d="M523.055 334.63c-.1-.7-.2-1.3-.1-2v-4.8c0-1.8.2-3.6.3-4.8 0-.7.1-1.3.3-2 .1.7.1 1.3 0 2l-.2 9.6-.3 2zm12.218-6.2c-.1 0-.4-3.5-.7-7.8l-.4-7.8c.1 0 .4 3.5.7 7.8l.4 7.8z"/><path d="M520.147 312.438c.7-.1 1.4-.1 2.1-.1l5 .1 5 .2c.7 0 1.4.1 2.1.2-.7.1-1.4.1-2.1.1-1.3 0-3 0-5-.1l-5-.2c-.8 0-1.5 0-2.1-.2zm30.35 43.702v-.4c0-.3 0-.7-.1-1.2v-4.4l.4-6.6c.2-2.5.6-5.2 1.1-8l1.8-7.9 1.9-6.3 1.6-4.2.5-1.1a.76.76 0 0 1 .2-.4c0 .1-.1.3-.1.4-.1.3-.2.7-.4 1.1a40.61 40.61 0 0 0-1.4 4.2l-1.8 6.3-1.7 7.9-1.1 8-.5 6.6-.1 4.4v1.2c-.3.1-.3.3-.3.4z"/><path d="M552.14 335.192c-.4.5-.8.9-1.2 1.3l-3.2 3-3.4 2.8c-.5.4-1 .7-1.5 1 .4-.5.8-.9 1.3-1.2l6.6-5.8a7.55 7.55 0 0 1 1.4-1.1zm9.76 7.854c-.5-.6-.9-1.2-1.3-1.8l-3-4.4-3.1-4.4c-.5-.6-.9-1.2-1.2-1.9.5.5 1 1.1 1.5 1.7l3.2 4.3 3 4.5a11.33 11.33 0 0 0 .9 2zm-5.146-24.666c.1.1-3.2 2.2-7.2 4.8l-7.4 4.6 7.2-4.9 7.4-4.5z"/><path d="M565.883 328.218c-3.3-2.9-6.5-6-9.5-9.3 3.3 2.9 6.5 6 9.5 9.3z"/></g><path d="M568.2 328.013l2.8-.2c2-.2 3.9-.7 5.6-1.7.8-.5 1.7-.9 2.6-1.3 3.4-1.4 7.3-1.1 11-1.3 6-.3 12-1.8 17.4-4.5.3-.1.6-.4.8-.7.6-1-.5-2-1.4-2.5-4.7-2.9-9.4-5.8-14.7-7.2s-11.3-1.2-15.8 1.9c-5.5 3.6-7.4 11.1-8.3 17.5" class="T"/><g class="R"><path d="M608.358 317.942c-.2-.1-.3-.1-.5-.2l-1.3-.7-4.9-2.5c-2.4-1.2-4.9-2.2-7.5-2.9-3.1-.9-6.5-1.2-9.7-.8-3.3.4-6.4 1.7-8.9 3.8-2 1.8-3.5 4-4.6 6.5-.8 1.7-1.4 3.3-2 5.1l-.5 1.4c0 .2-.1.3-.2.5 0-.2.1-.3.1-.5l.4-1.4c.5-1.7 1.2-3.5 1.9-5.1 1.1-2.5 2.6-4.8 4.6-6.6 2.6-2.2 5.7-3.6 9.1-3.9 3.3-.5 6.7-.2 9.9.7 2.6.8 5.1 1.8 7.5 3 2.1 1 3.7 2 4.8 2.6l1.3.7c.2.1.3.2.5.3z"/><path d="M601.712 321.55c-.1.1-3.7-2.3-8.1-5.2l-7.9-5.5c.1 0 3.7 2.3 8.1 5.2l7.9 5.5zm-3.502-11.178c-1.8.6-3.8.8-5.7.5l5.7-.5zm-16.258-2.884c-.7 1.6-1.6 3.2-2.7 4.6a19.18 19.18 0 0 1 2.7-4.6zm3.218 16.185l-1.7-.9c-1-.6-2.5-1.6-4-2.7l-3.8-2.9-1.5-1.3c.6.3 1.1.7 1.7 1.1l3.9 2.8 3.9 2.7 1.5 1.2z"/></g><path d="M572.285 339.758c-2.6-.7-5.8 1.9-6.3 4.6s.5 5.4 1.6 7.9c2.5 5.5 6.3 10.4 10.9 14.3a26.88 26.88 0 0 0 16.7 6.2c-1.1-5.2.3-10.6-.3-15.9-1.1-9.6-8.7-17.1-18.3-18.2-1.7-.2-3.7-.4-4.3 1.1" class="T"/><g class="R"><path d="M595.182 372.71a.76.76 0 0 1-.4-.2c-.3-.2-.7-.4-1-.7-1.1-1-2-2.2-2.6-3.5l-1.4-2.7-1.4-3.1c-.5-1.2-1.1-2.3-1.7-3.4-.7-1.2-1.5-2.2-2.4-3.3-1.8-2.1-3.8-4-5.4-5.7a33.09 33.09 0 0 1-4.1-5c-.8-1.2-1.5-2.5-2-3.9-.1-.4-.3-.8-.4-1.1 0-.1-.1-.3-.1-.4l.6 1.5c.6 1.3 1.3 2.6 2.1 3.8 1.3 1.7 2.7 3.4 4.2 4.9l5.5 5.7c.9 1 1.7 2.2 2.4 3.3s1.2 2.2 1.8 3.4l1.4 3.2c.4 1 .9 1.9 1.3 2.7.6 1.3 1.4 2.5 2.5 3.5.6.7 1.2 1 1.1 1z"/><path d="M581.556 368.46c0-.6.1-1.2.2-1.8.2-1.1.5-2.6 1-4.2l1.3-4.1c.2-.6.4-1.1.7-1.6-.1.6-.3 1.2-.5 1.7l-1.2 4.1-1.1 4.2c0 .5-.2 1.1-.4 1.7zm13.2-12.768c-.6-.1-1.3-.2-1.9-.4l-4.5-1.1-4.5-.9c-.6-.1-1.3-.2-1.9-.4.6 0 1.3 0 1.9.2l4.5.8 4.5 1.2c.7 0 1.3.3 1.9.6zm-23 3.676c0-.7.1-1.4.3-2.1.2-1.3.6-3 1.1-4.9l1.4-4.8c.2-.7.4-1.3.8-1.9-.1.7-.3 1.4-.5 2l-1.3 4.8-1.2 4.9-.6 2zm16.927-14.796c0 .1-3.3-.2-7.4-.6l-7.3-1c.1-.1 3.3.2 7.4.6l7.3 1z"/></g><path d="M586.182 384.64c0 .1-11.6.2-25.9.2s-25.9-.1-25.9-.2 11.6-.2 25.9-.2l25.9.2zm-8.057 14.945c0 .1-7.8.2-17.5.2s-17.4-.1-17.4-.2 7.8-.2 17.4-.2l17.5.2zm.305 2.137c0 .1-7.8.2-17.5.2s-17.4-.1-17.4-.2 7.8-.2 17.4-.2l17.5.2zm0-3.898c0 .1-8.1.2-18.1.2s-18-.1-18-.2 8.1-.2 18.1-.2l18 .2z" class="U"/><defs ><path id="B" d="M435.894 252.938l-17.1.1c-9.4 0-17 0-17-.1s7.7-.1 17.1-.1l17 .1z"/><path id="C" d="M408.503 267.172l-.1-8.5.1-8.5c.1 0 .1 3.8.1 8.5l-.1 8.5z"/><path id="D" d="M400.763 261.43c1.3.3 2.1 1.6 1.8 2.8-.3 1.3-1.6 2.1-2.8 1.8-1.3-.3-2.1-1.6-1.8-2.8.2-1.1 1.2-1.8 2.3-1.8h.5z"/><path id="E" d="M203.146 162.01c.1.1.9-.5 1.9-.5 1.1-.1 1.9.4 2 .3s-.1-.3-.4-.5c-.5-.3-1-.4-1.6-.4s-1.1.2-1.5.6c-.4.2-.5.5-.4.5z"/><path id="F" d="M122.14 195.546c.8-1.3 1.2-3-.3-3.9 0 0-1.4-.9-3 .8-1.2 1.3-1.8 2.9-.8 4.1 1.2 1.4 3.4.3 4.1-1zm-2.3-.2c-.6.4-1 .9-1.3 1.5-.1-1 .3-1.5 1.7-2.6.8-.6 1.3-1.5 1.5-2.4.7 1.7-.9 2.8-1.9 3.5z"/></defs></svg>